<svg width="32" height="20" viewBox="0 0 32 20" fill="none" xmlns="http://www.w3.org/2000/svg">
<g clip-path="url(#clip0_0_863)">
<path d="M32 18.1625C32 19.0953 31.1531 19.8515 30.1084 19.8515H1.89156C0.846875 19.8516 0 19.0953 0 18.1625V1.83641C0 0.903655 0.846875 0.147461 1.89156 0.147461H30.1084C31.1532 0.147461 32 0.903655 32 1.83641V18.1625Z" fill="#306FC5"/>
<path opacity="0.15" d="M1.34481 18.1625V1.83641C1.34481 0.903655 2.19181 0.147461 3.2365 0.147461H1.8915C0.846875 0.147461 0 0.9036 0 1.83641V18.1626C0 19.0954 0.846875 19.8516 1.89156 19.8516H3.23656C2.19188 19.8516 1.34481 19.0953 1.34481 18.1625Z" fill="#202121"/>
<path d="M4.66174 8.03278H5.61787L5.13993 6.94629L4.66174 8.03278Z" fill="white"/>
<path d="M9.74683 11.6797V12.1842H11.3549V12.7276H9.74683V13.3098H11.5286L12.3543 12.4947L11.5721 11.6797H9.74683Z" fill="white"/>
<path d="M22.3065 6.94629L21.7849 8.03278H22.7846L22.3065 6.94629Z" fill="white"/>
<path d="M14.3966 13.6209V11.4092L13.2666 12.4957L14.3966 13.6209Z" fill="white"/>
<path d="M16.5261 12.0291C16.4826 11.7963 16.3086 11.6797 16.0477 11.6797H15.1353V12.3781H16.0914C16.3521 12.3782 16.5261 12.2618 16.5261 12.0291Z" fill="white"/>
<path d="M19.5679 12.3008C19.6548 12.2619 19.6984 12.1454 19.6984 12.0292C19.7419 11.8742 19.6548 11.7964 19.5679 11.7576C19.4812 11.7188 19.3506 11.7188 19.2204 11.7188H18.3511V12.3397H19.2204C19.3506 12.3397 19.4811 12.3397 19.5679 12.3008Z" fill="white"/>
<path d="M25.8259 5.9375V6.40313L25.5654 5.9375H23.523V6.40313L23.2621 5.9375H20.4808C20.0028 5.9375 19.6114 6.01518 19.2639 6.17037V5.9375H17.3084V5.97634V6.17037C17.0911 6.01523 16.8304 5.9375 16.4827 5.9375H9.48582L9.00757 6.90759L8.52963 5.9375H6.96519H6.31326V6.40313L6.09594 5.9375H6.05244H4.18376L3.31444 7.76116L2.31501 9.74007L2.29663 9.77896H2.31501H4.53144H4.55919L4.57494 9.74007L4.83582 9.15815H5.40076L5.66151 9.77896H8.18188V9.74007V9.31334L8.39932 9.77891H9.65951L9.87669 9.31334V9.74007V9.77896H10.8763H15.8741H15.9176V8.77003H16.0047C16.0915 8.77003 16.0915 8.77003 16.0915 8.8865V9.74012H19.2206V9.50731C19.4813 9.62388 19.8722 9.74012 20.3938 9.74012H21.6977L21.9584 9.11942H22.5667L22.8274 9.74012H25.3479V9.35218V9.1582L25.7393 9.74012H25.8259H25.8696H27.7818V5.9375H25.8261H25.8259ZM11.0937 9.19704H10.659H10.3983V8.9644V7.06283L10.3548 7.15184V7.15078L9.34382 9.19704H9.31182H9.07938H8.70332L7.66038 7.06283V9.19704H6.18288L5.87869 8.61501H4.40094L4.09669 9.19704H3.33276L4.61838 6.4808H5.70476L6.92157 9.08052V6.4808H7.18226H8.07294L8.09344 6.5197H8.09494L8.64326 7.58521L9.03701 8.38354L9.05094 8.3433L9.92007 6.48086H11.0936V9.19704H11.0937ZM14.0924 7.06283H12.3975V7.56724H14.0489V8.11044H12.3975V8.65385H14.0924V9.23571H11.6588V6.48086H14.0924V7.06283ZM17.1921 8.06339C17.1933 8.06429 17.1947 8.0649 17.1961 8.06574C17.2125 8.08125 17.2266 8.09682 17.2386 8.11172C17.3218 8.20915 17.3891 8.35407 17.3925 8.56657C17.3928 8.57026 17.3929 8.57388 17.3932 8.57757C17.3932 8.57969 17.3936 8.58153 17.3936 8.58371C17.3936 8.58493 17.3935 8.58588 17.3935 8.58705C17.3945 8.60843 17.3951 8.63025 17.3951 8.65385V9.1971H16.7434V8.88655C16.7434 8.73136 16.7434 8.49849 16.6128 8.3433C16.5718 8.30664 16.5302 8.28248 16.4849 8.26529C16.4198 8.22762 16.2964 8.22701 16.0915 8.22701H15.309V9.1971H14.5704V6.48086H16.2219C16.6128 6.48086 16.8737 6.48086 17.0911 6.59727C17.304 6.71144 17.4326 6.90078 17.4375 7.20061C17.4274 7.61356 17.1306 7.84012 16.9171 7.91652C16.9171 7.91652 17.0621 7.94258 17.1921 8.06339ZM18.6556 9.19704H17.9167V6.4808H18.6556V9.19704ZM27.1301 9.19704H26.1738L24.7832 7.1404V8.84771L24.7786 8.84369V9.19872H24.0444V9.1971H23.3056L23.0448 8.61507H21.5236L21.2629 9.23577H20.4372C20.0898 9.23577 19.6549 9.15826 19.3943 8.92545C19.1335 8.69263 19.0033 8.3822 19.0033 7.87785C19.0033 7.48984 19.0901 7.10156 19.3943 6.79124C19.6114 6.55826 20.0027 6.48086 20.4806 6.48086H21.1761V7.06283H20.4806C20.2199 7.06283 20.0898 7.10151 19.9156 7.21814C19.7854 7.33449 19.6984 7.56724 19.6984 7.83884C19.6984 8.14933 19.7419 8.3433 19.9156 8.49849C20.0463 8.61507 20.2199 8.65391 20.4372 8.65391H20.7414L21.7408 6.51981H22.1756H22.8274L24.0444 9.11953V8.98694V8.11055V8.03304V6.51987H25.1308L26.3908 8.42109V6.51987H27.1299V9.19715H27.1301V9.19704Z" fill="white"/>
<path d="M16.5728 7.61275C16.5855 7.60064 16.597 7.58691 16.6068 7.57118C16.6461 7.51554 16.6913 7.41532 16.667 7.27854C16.666 7.26599 16.6634 7.25438 16.6604 7.24316C16.6596 7.24004 16.6597 7.23731 16.6588 7.23418L16.6583 7.23424C16.6367 7.16777 16.5815 7.12693 16.5265 7.10215C16.4393 7.06348 16.309 7.06348 16.1786 7.06348H15.3093V7.6844H16.1786C16.309 7.6844 16.4394 7.6844 16.5265 7.64551C16.5395 7.63959 16.5511 7.63156 16.5623 7.62246L16.5625 7.62296C16.5625 7.62296 16.567 7.61878 16.5728 7.61275Z" fill="white"/>
<path d="M29.6943 13.0775C29.6943 12.8059 29.6075 12.5342 29.4772 12.3403V10.5942H29.4752V10.4776C29.4752 10.4776 27.6536 10.4776 27.3825 10.4776C27.1115 10.4776 26.7826 10.7104 26.7826 10.7104V10.4776H24.7836C24.4793 10.4776 24.0884 10.5553 23.9143 10.7104V10.4776H20.3508V10.5942V10.7104C20.0903 10.5165 19.6118 10.4776 19.3947 10.4776H17.0479V10.5942V10.7103C16.8306 10.5164 16.3089 10.4775 16.048 10.4775H13.4409L12.8323 11.0596L12.2673 10.4775H12.0854H11.7893H8.3562V10.5941V10.9006V14.3968H12.1806L12.809 13.8356L13.3536 14.3968H13.3973H15.6009H15.7008H15.7443H15.7875V14.0088V13.5044H16.005C16.3089 13.5044 16.7002 13.5044 17.0044 13.3878V14.3578V14.4356H18.9601V14.3578V13.4266H19.0468C19.1773 13.4266 19.1773 13.4266 19.1773 13.5431V14.3578V14.4356H25.0875C25.479 14.4356 25.8698 14.3578 26.0871 14.2026V14.3578V14.4356H27.9559C28.3468 14.4356 28.7383 14.3968 28.999 14.2415C29.3991 14.0271 29.6513 13.6477 29.6888 13.1952C29.6906 13.1818 29.6928 13.1684 29.6941 13.155L29.6916 13.1528C29.6932 13.1277 29.6943 13.1029 29.6943 13.0775ZM16.005 12.8448H15.1356V12.9609V13.1938V13.4267V13.8535H13.7072L12.8758 12.9998L12.873 13.0027L12.8323 12.9609L11.8763 13.8535H9.09495V11.1374H11.9198L12.6915 11.8922L12.8538 12.0502L12.8758 12.0298L13.7885 11.1375H16.0918C16.5388 11.1375 17.0393 11.236 17.229 11.642C17.2518 11.7225 17.2651 11.8119 17.2651 11.9134C17.2651 12.6894 16.6566 12.8448 16.005 12.8448ZM20.3508 12.8059C20.4376 12.922 20.4811 13.0775 20.4811 13.3104V13.8535H19.7425V13.5044C19.7425 13.3489 19.7425 13.0775 19.6119 12.9609C19.5252 12.8448 19.3511 12.8448 19.0906 12.8448H18.3084V13.8535H17.5696V11.0986H19.221C19.5684 11.0986 19.8726 11.0986 20.0903 11.2149C20.3074 11.3314 20.4811 11.5254 20.4811 11.8359C20.4811 12.2626 20.1771 12.4954 19.9597 12.5731C20.1771 12.6504 20.3074 12.7283 20.3508 12.8059ZM23.3496 11.6804H21.6545V12.1848H23.306V12.7282H21.6545V13.2715H23.3496V13.8535H20.9159V11.0985H23.3496V11.6804ZM25.1747 13.8535H23.784V13.2716H25.1747C25.3048 13.2716 25.392 13.2716 25.4791 13.1939C25.5226 13.155 25.5658 13.0775 25.5658 12.9999C25.5658 12.9221 25.5226 12.8448 25.4791 12.8059C25.4355 12.7672 25.3484 12.7283 25.2181 12.7283C24.5227 12.6895 23.697 12.7283 23.697 11.8747C23.697 11.4867 23.9578 11.0598 24.7401 11.0598H26.1741V11.7193H24.827C24.6967 11.7193 24.6096 11.7193 24.5226 11.7582C24.436 11.7971 24.436 11.8747 24.436 11.9523C24.436 12.0687 24.5226 12.1076 24.6096 12.1461C24.6967 12.185 24.7835 12.185 24.8703 12.185H25.2615C25.6527 12.185 25.9134 12.2626 26.0872 12.4178C26.2176 12.5343 26.3046 12.7283 26.3046 12.9999C26.3046 13.5817 25.9135 13.8535 25.1747 13.8535ZM28.9121 13.5817C28.7385 13.7371 28.4341 13.8535 27.9994 13.8535H26.609V13.2716H27.9993C28.1298 13.2716 28.2169 13.2716 28.3037 13.1939C28.347 13.155 28.3906 13.0775 28.3906 12.9999C28.3906 12.9221 28.347 12.8448 28.3037 12.8059C28.2602 12.7672 28.1734 12.7283 28.043 12.7283C27.3478 12.6895 26.5219 12.7283 26.5219 11.8748C26.5219 11.506 26.7582 11.1729 27.341 11.0739C27.4107 11.0653 27.4843 11.0598 27.565 11.0598H28.9992V11.7193H28.043H27.6954H27.6519C27.5215 11.7193 27.4346 11.7193 27.3478 11.7582C27.3041 11.7971 27.2606 11.8747 27.2606 11.9523C27.2606 12.0687 27.3041 12.1076 27.4346 12.1461C27.5215 12.185 27.6084 12.185 27.6954 12.185H27.7386H28.0864C28.2763 12.185 28.42 12.2059 28.5514 12.2471C28.6718 12.286 29.0703 12.4452 29.1594 12.8606C29.1671 12.9042 29.1728 12.9496 29.1728 12.9999C29.1728 13.2327 29.0859 13.4267 28.9121 13.5817Z" fill="white"/>
</g>
<rect x="0.5" y="0.5" width="31" height="19" rx="1.5" stroke="#D1D1D1"/>
<defs>
<clipPath id="clip0_0_863">
<rect width="32" height="20" rx="2" fill="white"/>
</clipPath>
</defs>
</svg>
