<svg width="32" height="20" viewBox="0 0 32 20" fill="none" xmlns="http://www.w3.org/2000/svg">
<g clip-path="url(#clip0_0_835)">
<path d="M1.99997 0H30C31.104 0 32 0.779061 32 1.73989V18.261C32 19.2209 31.104 20 30 20H1.99997C0.89497 20.0001 0 19.2209 0 18.2611V1.73989C0 0.779061 0.895957 0 1.99997 0Z" fill="#26A6D1"/>
<path d="M5.16003 7L2 12.1686H5.783L6.25198 11.3445H7.32397L7.79296 12.1686H11.957V11.5396L12.328 12.1686H14.482L14.853 11.5263V12.1686H23.5131L24.5661 11.3659L25.5521 12.1686L30.0001 12.1752L26.83 9.59871L30.0001 7H25.6211L24.596 7.78785L23.6411 7H14.2201L13.4111 8.33405L12.5831 7H8.80802V7.60757L8.38807 7H5.16003ZM5.89202 7.73394H7.73603L9.83208 11.2388V7.73394H11.8521L13.4711 10.2469L14.9631 7.73394H16.9731V11.4427H15.7501L15.7401 8.53655L13.9571 11.4427H12.863L11.07 8.53655V11.4427H8.55401L8.07702 10.6113H5.50003L5.02403 11.442H3.67598L5.89202 7.73394ZM18.092 7.73394H23.065L24.586 8.94826L26.1561 7.73394H27.6771L25.3661 9.59798L27.6771 11.4405H26.0871L24.5661 10.2121L22.988 11.4405H18.092V7.73394ZM6.78908 8.36145L5.94006 9.84263H7.6371L6.78908 8.36145ZM19.3201 8.50185V9.17889H22.0331V9.9335H19.3201V10.6726H22.3631L23.7771 9.58396L22.4231 8.5012H19.3201V8.50185Z" fill="white"/>
</g>
<rect x="0.5" y="0.5" width="31" height="19" rx="1.5" stroke="#D1D1D1"/>
<defs>
<clipPath id="clip0_0_835">
<rect width="32" height="20" rx="2" fill="white"/>
</clipPath>
</defs>
</svg>
