<svg width="32" height="20" viewBox="0 0 32 20" fill="none" xmlns="http://www.w3.org/2000/svg">
<g clip-path="url(#clip0_0_789)">
<path d="M7.55222 7.20607C7.49408 6.75533 7.71913 6.27584 7.97357 5.98265C8.25676 5.63944 8.74625 5.395 9.1476 5.375C9.19636 5.84511 9.01069 6.30522 8.73625 6.64781C8.45243 6.98101 8.00295 7.24482 7.55222 7.20607Z" fill="black"/>
<path d="M10.8008 11.2093C10.7908 11.2387 10.6351 11.7757 10.2544 12.3321C9.92244 12.8204 9.58111 13.2986 9.03473 13.3086C8.50773 13.3186 8.33206 12.996 7.72691 12.996C7.12177 12.996 6.92672 13.2986 6.4291 13.3186C5.9021 13.338 5.50263 12.8004 5.17067 12.3127C4.48739 11.3263 3.97039 9.53019 4.67306 8.31928C5.01439 7.71413 5.63891 7.33342 6.3122 7.32341C6.8292 7.31404 7.30744 7.66537 7.62001 7.66537C7.93196 7.66537 8.48772 7.25527 9.14163 7.29466C9.39544 7.31404 10.1275 7.39218 10.5957 8.08485C10.557 8.11485 9.72739 8.59309 9.7374 9.59834C9.74677 10.7992 10.7908 11.1993 10.8008 11.2093Z" fill="black"/>
<path d="M14.8353 5.93359H12.0896V13.2572H13.2261V10.7554H14.7996C16.2362 10.7554 17.2458 9.77077 17.2458 8.33917C17.2458 6.9132 16.2569 5.93359 14.8353 5.93359ZM14.5308 9.80077H13.2261V6.89257H14.5358C15.5204 6.89257 16.0837 7.42083 16.0837 8.34417C16.0837 9.26814 15.5204 9.80077 14.5308 9.80077Z" fill="black"/>
<path d="M19.9585 7.82129C18.6389 7.82129 17.8168 8.53209 17.7561 9.49607H18.7914C18.8877 9.01908 19.2834 8.71463 19.9179 8.71463C20.5881 8.71463 20.9888 9.06971 20.9888 9.66361V10.075L19.5272 10.1612C18.2581 10.2325 17.543 10.8058 17.543 11.7397C17.543 12.6987 18.2738 13.3489 19.319 13.3489C20.0198 13.3489 20.695 12.9732 21.0044 12.3793H21.0294V13.257H22.0803V9.57734C22.0803 8.50645 21.2532 7.82129 19.9585 7.82129ZM20.9888 11.2577C20.9888 11.9529 20.3899 12.4805 19.6235 12.4805C19.0352 12.4805 18.6495 12.1761 18.6495 11.7091C18.6495 11.2527 19.0196 10.9633 19.6741 10.9177L20.9888 10.8364V11.2577Z" fill="black"/>
<path d="M26.4534 7.91797H27.6105L25.6107 13.5368C25.1537 14.8309 24.626 15.2472 23.5195 15.2472C23.4283 15.2472 23.1538 15.2372 23.0732 15.2222V14.3339C23.1538 14.3539 23.3364 14.3539 23.4283 14.3539C23.9359 14.3539 24.2097 14.1407 24.3772 13.5925C24.3772 13.5825 24.4735 13.268 24.4735 13.263L22.5449 7.91797H23.7327L25.083 12.2628H25.103L26.4534 7.91797Z" fill="black"/>
<path d="M31.9994 2.29526C31.9966 1.80539 31.9825 1.29083 31.7537 0.845539C31.569 0.486015 31.2729 0.187881 30.9129 0.00408696C30.4639 -0.225156 29.9558 -0.238721 29.4625 -0.241597C29.3531 -0.242222 29.2437 -0.242222 29.1343 -0.242222H2.86677C2.46542 -0.242222 2.05682 -0.255288 1.66023 -0.184083C1.26238 -0.112504 0.887665 0.0720405 0.600596 0.357922C0.31334 0.64399 0.129858 1.02077 0.0585909 1.41755C-0.0127387 1.81433 0.00107711 2.22256 0.00107711 2.62409V17.3783C0.00107711 17.4877 0.000451959 17.5971 0.00107711 17.7065C0.00389029 18.1985 0.0184563 18.7088 0.246761 19.1562C0.430305 19.516 0.727814 19.8149 1.08821 19.9976C1.53713 20.2252 2.04638 20.237 2.53856 20.2427C2.64734 20.2439 2.75736 20.2439 2.86677 20.2439H29.1343C29.2437 20.2439 29.3531 20.2439 29.4625 20.2427C29.9507 20.2371 30.462 20.2269 30.9129 19.9976C31.2724 19.8148 31.5714 19.5158 31.7537 19.1562C31.9804 18.7089 31.9966 18.1975 31.9994 17.7065C32 17.5971 32 17.4877 32 17.3783V2.62409C32 2.51406 32 2.40466 31.9994 2.29526ZM31.3174 17.3783C31.3174 17.4858 31.3174 17.5933 31.3167 17.7033C31.3145 18.0847 31.3225 18.4982 31.1454 18.8467C31.0275 19.0789 30.834 19.2715 30.6022 19.3894C30.2532 19.5667 29.8392 19.5578 29.4575 19.56C29.35 19.5607 29.2419 19.5607 29.1343 19.5607H2.86239C2.75611 19.5607 2.64984 19.5607 2.54169 19.56C2.15941 19.5573 1.74637 19.5664 1.39704 19.3881C1.16517 19.2697 0.973186 19.0793 0.855657 18.8467C0.678928 18.4971 0.687117 18.0848 0.684366 17.7027L0.683741 17.4458V2.55595L0.684366 2.30026C0.684991 2.21274 0.685617 2.12522 0.688117 2.0377C0.696619 1.74 0.718562 1.42424 0.855657 1.15436C0.972998 0.923432 1.16654 0.729824 1.3976 0.612983C1.67029 0.475137 1.98037 0.453945 2.28044 0.44538C2.36796 0.44288 2.45548 0.442255 2.54238 0.44163L2.86683 0.441004H29.1344L29.4576 0.44163C29.8391 0.44238 30.255 0.435691 30.6035 0.612921C30.836 0.731074 31.0269 0.923433 31.1455 1.15555C31.3234 1.50382 31.3146 1.91948 31.3168 2.30083C31.3174 2.40835 31.3174 2.51588 31.3174 2.62403V17.3783H31.3174Z" fill="white"/>
<path d="M7.55222 7.20607C7.49408 6.75533 7.71913 6.27584 7.97357 5.98265C8.25676 5.63944 8.74625 5.395 9.1476 5.375C9.19636 5.84511 9.01069 6.30522 8.73625 6.64781C8.45243 6.98101 8.00295 7.24482 7.55222 7.20607Z" fill="black"/>
<path d="M10.8008 11.2093C10.7908 11.2387 10.6351 11.7757 10.2544 12.3321C9.92244 12.8204 9.58111 13.2986 9.03473 13.3086C8.50773 13.3186 8.33206 12.996 7.72691 12.996C7.12177 12.996 6.92672 13.2986 6.4291 13.3186C5.9021 13.338 5.50263 12.8004 5.17067 12.3127C4.48739 11.3263 3.97039 9.53019 4.67306 8.31928C5.01439 7.71413 5.63891 7.33342 6.3122 7.32341C6.8292 7.31404 7.30744 7.66537 7.62001 7.66537C7.93196 7.66537 8.48772 7.25527 9.14163 7.29466C9.39544 7.31404 10.1275 7.39218 10.5957 8.08485C10.557 8.11485 9.72739 8.59309 9.7374 9.59834C9.74677 10.7992 10.7908 11.1993 10.8008 11.2093Z" fill="black"/>
<path d="M14.8353 5.93359H12.0896V13.2572H13.2261V10.7554H14.7996C16.2362 10.7554 17.2458 9.77077 17.2458 8.33917C17.2458 6.9132 16.2569 5.93359 14.8353 5.93359ZM14.5308 9.80077H13.2261V6.89257H14.5358C15.5204 6.89257 16.0837 7.42083 16.0837 8.34417C16.0837 9.26814 15.5204 9.80077 14.5308 9.80077Z" fill="black"/>
<path d="M19.9585 7.82129C18.6389 7.82129 17.8168 8.53209 17.7561 9.49607H18.7914C18.8877 9.01908 19.2834 8.71463 19.9179 8.71463C20.5881 8.71463 20.9888 9.06971 20.9888 9.66361V10.075L19.5272 10.1612C18.2581 10.2325 17.543 10.8058 17.543 11.7397C17.543 12.6987 18.2738 13.3489 19.319 13.3489C20.0198 13.3489 20.695 12.9732 21.0044 12.3793H21.0294V13.257H22.0803V9.57734C22.0803 8.50645 21.2532 7.82129 19.9585 7.82129ZM20.9888 11.2577C20.9888 11.9529 20.3899 12.4805 19.6235 12.4805C19.0352 12.4805 18.6495 12.1761 18.6495 11.7091C18.6495 11.2527 19.0196 10.9633 19.6741 10.9177L20.9888 10.8364V11.2577Z" fill="black"/>
<path d="M27.6105 7.91797L25.6107 13.5368C25.1537 14.8309 24.626 15.2472 23.5195 15.2472C23.4283 15.2472 23.1538 15.2372 23.0732 15.2222V14.3339C23.1538 14.3539 23.3364 14.3539 23.4283 14.3539C23.9359 14.3539 24.2097 14.1407 24.3772 13.5925C24.3772 13.5825 24.4735 13.268 24.4735 13.263L22.5449 7.91797H23.7327L25.083 12.2628H25.103L26.4534 7.91797H27.6105Z" fill="black"/>
<path d="M8.73625 6.64781C8.45243 6.98101 8.00295 7.24482 7.55222 7.20607C7.49408 6.75533 7.71913 6.27584 7.97357 5.98265C8.25676 5.63944 8.74625 5.395 9.1476 5.375C9.19636 5.84511 9.01069 6.30522 8.73625 6.64781Z" fill="white"/>
<path d="M10.8008 11.2093C10.7908 11.2387 10.6351 11.7757 10.2544 12.3321C9.92244 12.8204 9.58111 13.2986 9.03473 13.3086C8.50773 13.3186 8.33206 12.996 7.72691 12.996C7.12177 12.996 6.92672 13.2986 6.4291 13.3186C5.9021 13.338 5.50263 12.8004 5.17067 12.3127C4.48739 11.3263 3.97039 9.53019 4.67306 8.31928C5.01439 7.71413 5.63891 7.33342 6.3122 7.32341C6.8292 7.31404 7.30744 7.66537 7.62001 7.66537C7.93196 7.66537 8.48772 7.25527 9.14163 7.29466C9.39544 7.31404 10.1275 7.39218 10.5957 8.08485C10.557 8.11485 9.72739 8.59309 9.7374 9.59834C9.74677 10.7992 10.7908 11.1993 10.8008 11.2093Z" fill="white"/>
<path d="M14.8345 5.93359H12.0889V13.2572H13.2254V10.7554H14.7989C16.2355 10.7554 17.2451 9.77077 17.2451 8.33917C17.2451 6.9132 16.2561 5.93359 14.8345 5.93359ZM14.5301 9.80077H13.2254V6.89257H14.5351C15.5197 6.89257 16.083 7.42083 16.083 8.34417C16.083 9.26814 15.5197 9.80077 14.5301 9.80077Z" fill="white"/>
<path d="M19.9585 7.82129C18.6389 7.82129 17.8168 8.53209 17.7561 9.49607H18.7914C18.8877 9.01908 19.2834 8.71463 19.9179 8.71463C20.5881 8.71463 20.9888 9.06971 20.9888 9.66361V10.075L19.5272 10.1612C18.2581 10.2325 17.543 10.8058 17.543 11.7397C17.543 12.6987 18.2738 13.3489 19.319 13.3489C20.0198 13.3489 20.695 12.9732 21.0044 12.3793H21.0294V13.257H22.0803V9.57734C22.0803 8.50645 21.2532 7.82129 19.9585 7.82129ZM20.9888 11.2577C20.9888 11.9529 20.3899 12.4805 19.6235 12.4805C19.0352 12.4805 18.6495 12.1761 18.6495 11.7091C18.6495 11.2527 19.0196 10.9633 19.6741 10.9177L20.9888 10.8364V11.2577Z" fill="white"/>
<path d="M26.4523 7.91797L25.1019 12.2628H25.0819L23.7316 7.91797H22.5438L24.4724 13.263C24.4724 13.268 24.3761 13.5825 24.3761 13.5925C24.2086 14.1407 23.9348 14.3539 23.4272 14.3539C23.3353 14.3539 23.1527 14.3539 23.0721 14.3339V15.2222C23.1527 15.2372 23.4272 15.2472 23.5184 15.2472C24.6249 15.2472 25.1526 14.8309 25.6096 13.5368L27.6094 7.91797H26.4523Z" fill="white"/>
</g>
<defs>
<clipPath id="clip0_0_789">
<rect width="32" height="20" fill="white"/>
</clipPath>
</defs>
</svg>
