<svg width="40" height="40" viewBox="0 0 40 40" fill="none" xmlns="http://www.w3.org/2000/svg">
<g clip-path="url(#clip0_0_614)">
<path d="M39.5659 19.1357L37.1426 16.8879C36.9774 16.7347 36.8506 16.5447 36.7727 16.3332L34.8697 11.1656C34.5975 10.4374 34.1099 9.80934 33.4718 9.36525C32.8336 8.92115 32.0753 8.6821 31.2978 8.67994H28.4145V7.87104C28.4145 7.52317 28.2763 7.18955 28.0303 6.94357C27.7843 6.69759 27.4507 6.5594 27.1028 6.5594H9.67727C9.418 6.55634 9.16775 6.65453 8.97973 6.83308C8.7917 7.01163 8.68073 7.25648 8.6704 7.51557C8.66798 7.64508 8.6914 7.77377 8.73928 7.89413C8.78717 8.01449 8.85857 8.1241 8.9493 8.21654C9.04003 8.30899 9.14828 8.38243 9.26772 8.43257C9.38716 8.4827 9.51539 8.50853 9.64493 8.50854H26.4652V16.9653C26.4652 17.3132 26.6034 17.6468 26.8494 17.8928C27.0954 18.1388 27.429 18.277 27.7769 18.277H35.6981L38.0507 20.3942V28.2919H35.9179C35.7055 27.3625 35.1839 26.5328 34.4385 25.9385C33.6931 25.3442 32.768 25.0206 31.8147 25.0206C30.8614 25.0206 29.9363 25.3442 29.1909 25.9385C28.4455 26.5328 27.9239 27.3625 27.7115 28.2919H21.1484C20.9361 27.3625 20.4145 26.5328 19.6691 25.9385C18.9236 25.3442 17.9986 25.0206 17.0452 25.0206C16.0919 25.0206 15.1668 25.3442 14.4214 25.9385C13.676 26.5328 13.1544 27.3625 12.942 28.2919H9.67719C9.41789 28.2888 9.16761 28.3871 8.9796 28.5657C8.79158 28.7443 8.68065 28.9892 8.6704 29.2483C8.66798 29.3778 8.6914 29.5065 8.73929 29.6269C8.78717 29.7472 8.85857 29.8568 8.94931 29.9493C9.04004 30.0417 9.14829 30.1151 9.26773 30.1653C9.38717 30.2154 9.5154 30.2412 9.64493 30.2412H12.9584C13.1842 31.1544 13.7093 31.9657 14.45 32.5456C15.1907 33.1255 16.1043 33.4405 17.045 33.4405C17.9857 33.4405 18.8992 33.1255 19.6399 32.5456C20.3806 31.9657 20.9057 31.1544 21.1315 30.2412H27.7281C27.9538 31.1544 28.4789 31.9657 29.2196 32.5456C29.9603 33.1255 30.8739 33.4405 31.8146 33.4405C32.7553 33.4405 33.6689 33.1255 34.4095 32.5456C35.1502 31.9657 35.6754 31.1544 35.9011 30.2412H38.6884C39.0362 30.2412 39.3698 30.103 39.6158 29.857C39.8618 29.6111 40 29.2775 40 28.9296V20.1106C39.9999 19.9267 39.9612 19.745 39.8864 19.5771C39.8116 19.4092 39.7024 19.2588 39.5659 19.1357ZM28.4145 16.3281V10.629H31.2978C31.6774 10.63 32.0477 10.7468 32.3593 10.9636C32.6709 11.1804 32.9089 11.4871 33.0418 11.8427L34.7031 16.3281H28.4145ZM17.045 31.4911C16.5979 31.4911 16.1608 31.3585 15.789 31.1101C15.4172 30.8617 15.1275 30.5086 14.9564 30.0955C14.7853 29.6824 14.7405 29.2279 14.8277 28.7893C14.915 28.3508 15.1303 27.948 15.4465 27.6318C15.7626 27.3157 16.1655 27.1004 16.604 27.0131C17.0426 26.9259 17.4971 26.9707 17.9102 27.1418C18.3233 27.3129 18.6764 27.6027 18.9248 27.9745C19.1732 28.3463 19.3057 28.7834 19.3057 29.2305C19.305 29.8298 19.0666 30.4045 18.6428 30.8283C18.219 31.2521 17.6444 31.4905 17.045 31.4911ZM31.8146 31.4911C31.3675 31.4911 30.9304 31.3586 30.5586 31.1101C30.1868 30.8617 29.8971 30.5087 29.7259 30.0956C29.5548 29.6825 29.51 29.2279 29.5973 28.7894C29.6845 28.3508 29.8998 27.948 30.216 27.6319C30.5322 27.3157 30.935 27.1004 31.3735 27.0131C31.8121 26.9259 32.2666 26.9707 32.6797 27.1418C33.0928 27.3129 33.4459 27.6027 33.6943 27.9745C33.9427 28.3463 34.0753 28.7834 34.0752 29.2305C34.0746 29.8298 33.8362 30.4044 33.4124 30.8282C32.9886 31.252 32.414 31.4904 31.8146 31.4911Z" fill="white"/>
<path d="M5.48305 13.9608H16.5357C16.7942 13.9608 17.0421 13.8582 17.2249 13.6754C17.4077 13.4926 17.5104 13.2447 17.5104 12.9862C17.5104 12.7277 17.4077 12.4797 17.2249 12.297C17.0421 12.1142 16.7942 12.0115 16.5357 12.0115H5.48305C5.22455 12.0115 4.97663 12.1142 4.79384 12.297C4.61105 12.4797 4.50836 12.7277 4.50836 12.9862C4.50836 13.2447 4.61105 13.4926 4.79384 13.6754C4.97663 13.8582 5.22455 13.9608 5.48305 13.9608Z" fill="white"/>
<path d="M17.5104 18.4005C17.5104 18.142 17.4077 17.8941 17.2249 17.7113C17.0421 17.5285 16.7942 17.4258 16.5357 17.4258H0.974686C0.845959 17.4247 0.718279 17.449 0.599018 17.4975C0.479757 17.546 0.371277 17.6176 0.279843 17.7082C0.18841 17.7988 0.115832 17.9066 0.0663028 18.0255C0.016773 18.1443 -0.00872803 18.2717 -0.00872803 18.4005C-0.00872803 18.5292 0.016773 18.6567 0.0663028 18.7755C0.115832 18.8943 0.18841 19.0021 0.279843 19.0928C0.371277 19.1834 0.479757 19.255 0.599018 19.3034C0.718279 19.3519 0.845959 19.3763 0.974686 19.3751H16.5357C16.7942 19.3751 17.0421 19.2724 17.2249 19.0897C17.4077 18.9069 17.5104 18.659 17.5104 18.4005Z" fill="white"/>
<path d="M11.3389 23.8145C11.3389 23.6865 11.3137 23.5597 11.2647 23.4415C11.2157 23.3232 11.1439 23.2158 11.0534 23.1253C10.9629 23.0348 10.8555 22.963 10.7372 22.914C10.619 22.8651 10.4923 22.8398 10.3643 22.8398H3.58998C3.333 22.8421 3.08733 22.9458 2.90642 23.1284C2.72552 23.3109 2.62402 23.5575 2.62402 23.8145C2.62402 24.0715 2.72552 24.3181 2.90642 24.5006C3.08733 24.6831 3.333 24.7868 3.58998 24.7891H10.3643C10.6228 24.7891 10.8707 24.6864 11.0534 24.5036C11.2362 24.3208 11.3389 24.0729 11.3389 23.8145Z" fill="white"/>
</g>
<defs>
<clipPath id="clip0_0_614">
<rect width="40" height="40" fill="white"/>
</clipPath>
</defs>
</svg>
