<svg width="28" height="21" viewBox="0 0 28 21" fill="none" xmlns="http://www.w3.org/2000/svg">
<g clip-path="url(#clip0_0_810)">
<path d="M26.7273 0.136719H14H1.27274C0.569844 0.136719 0 0.706563 0 1.40946V19.5913C0 20.2942 0.569844 20.864 1.27274 20.864H14H26.7273C27.4302 20.864 28 20.2942 28 19.5913V1.40946C28 0.706563 27.4302 0.136719 26.7273 0.136719Z" fill="#DEDEE0"/>
<path d="M9.5918 10.4893C9.59409 11.7995 10.4103 12.9163 11.5657 13.3601V7.61621C10.4103 8.06295 9.59409 9.17973 9.5918 10.4893Z" fill="#3D6DEB"/>
<path d="M19.2394 6.43516C18.1503 5.43252 16.6615 4.85742 15.1498 4.85742H14.0006H12.6512C9.41164 4.85742 6.96875 7.30239 6.96875 10.5446C6.96875 13.6306 9.50816 16.1413 12.6295 16.1413H14.0006H15.1481L15.176 16.1414C15.1761 16.1414 15.1761 16.1414 15.1763 16.1414C16.6535 16.1414 18.1384 15.544 19.2501 14.5024C20.3995 13.4255 21.0326 12.02 21.0326 10.5448C21.0325 8.9592 20.3957 7.49976 19.2394 6.43516ZM14.0006 14.8031C13.5791 14.9338 13.1315 15.0044 12.6677 15.0044C10.1786 15.0044 8.1535 12.9792 8.1535 10.4899C8.1535 8.00053 10.1786 5.97534 12.6677 5.97534C13.1315 5.97534 13.5791 6.04594 14.0006 6.17659C15.84 6.74677 17.1799 8.46472 17.1799 10.4899C17.1799 12.515 15.84 14.2329 14.0006 14.8031Z" fill="#3D6DEB"/>
<path d="M14.0002 7.71777C13.9241 7.68102 13.8468 7.64667 13.7676 7.61621V13.3601C13.8469 13.3296 13.9242 13.2953 14.0002 13.2587C15.0308 12.7614 15.7412 11.7096 15.7434 10.4894C15.7412 9.26974 15.0308 8.21586 14.0002 7.71777Z" fill="#3D6DEB"/>
<path d="M14.0005 6.17684C13.5789 6.04619 13.1314 5.97559 12.6675 5.97559C10.1784 5.97559 8.15332 8.00083 8.15332 10.4901C8.15332 12.9794 10.1784 15.0046 12.6675 15.0046C13.1314 15.0046 13.5789 14.934 14.0005 14.8034C15.8398 14.2332 17.1797 12.5153 17.1797 10.4901C17.1797 8.46485 15.8398 6.74706 14.0005 6.17684ZM11.5657 13.3609C10.4103 12.9172 9.59412 11.8003 9.59177 10.4903C9.59406 9.1806 10.4103 8.06383 11.5657 7.61703V13.3609ZM14.0005 13.2595C13.9244 13.2962 13.8471 13.3305 13.7679 13.3609V7.61698C13.8472 7.64744 13.9245 7.68189 14.0005 7.71853C15.031 8.21657 15.7415 9.27051 15.7437 10.4902C15.7415 11.7104 15.031 12.7622 14.0005 13.2595Z" fill="#DEDEE0"/>
<path d="M12.6289 16.1423C9.50753 16.1423 6.96812 13.6316 6.96812 10.5457C6.96812 7.30346 9.41101 4.85844 12.6506 4.85844H14V0.136719H1.27274C0.569844 0.136719 0 0.706563 0 1.40946V19.5913C0 20.2942 0.569844 20.864 1.27274 20.864H14V16.1422L12.6289 16.1423Z" fill="#C3C3C7"/>
</g>
<defs>
<clipPath id="clip0_0_810">
<rect width="28" height="21" fill="white"/>
</clipPath>
</defs>
</svg>
