<svg width="19" height="18" viewBox="0 0 19 18" fill="none" xmlns="http://www.w3.org/2000/svg">
<g clip-path="url(#clip0_0_741)">
<path d="M18.5 3.91574C18.5 3.00238 17.7569 2.25928 16.8435 2.25928H2.15646C1.24328 2.25931 0.500316 3.00206 0.5 3.91602V3.9163V14.0835C0.5 15.0083 1.25066 15.7405 2.15703 15.7405H16.8429C17.7677 15.7405 18.5 14.9899 18.5 14.0835V3.9163C18.5 3.91623 18.5 3.91616 18.5 3.91609C18.5 3.91599 18.5 3.91588 18.5 3.91574ZM2.15646 3.314H16.8435C17.1753 3.314 17.4453 3.58397 17.4453 3.91662C17.4453 4.09339 17.3575 4.25746 17.2101 4.35562L9.83416 9.27315C9.6312 9.40847 9.36887 9.4085 9.16587 9.27315C9.16587 9.27315 1.78971 4.35551 1.78985 4.35562C1.78989 4.35565 1.78975 4.35555 1.78971 4.35551C1.64255 4.25746 1.55469 4.09339 1.55469 3.91574C1.55469 3.58393 1.82466 3.314 2.15646 3.314ZM16.843 14.6858H2.15703C1.8287 14.6858 1.55469 14.4204 1.55469 14.0835V5.46645L8.5808 10.1507C8.86001 10.3368 9.18001 10.4299 9.5 10.4299C9.82003 10.4299 10.1401 10.3368 10.4192 10.1507L17.4453 5.46645V14.0835C17.4453 14.4118 17.1798 14.6858 16.843 14.6858Z" fill="white"/>
</g>
<defs>
<clipPath id="clip0_0_741">
<rect width="18" height="18" fill="white" transform="translate(0.5)"/>
</clipPath>
</defs>
</svg>
