<svg width="40" height="40" viewBox="0 0 40 40" fill="none" xmlns="http://www.w3.org/2000/svg">
<g clip-path="url(#clip0_0_623)">
<path d="M39.5948 8.65074L24.0161 0.0963593C23.7821 -0.0321198 23.4983 -0.0321198 23.2642 0.0963593L17.3923 3.32054C17.2684 3.3532 17.1527 3.41545 17.0569 3.50487L7.68587 8.65074C7.43593 8.78777 7.2806 9.05022 7.2806 9.33556V19.6816C5.69979 20.176 4.25112 21.0479 3.04659 22.2527C-0.0930625 25.3921 -0.893539 30.1803 1.0547 34.1674C1.24391 34.555 1.71175 34.7158 2.09932 34.5263C2.4872 34.3368 2.64772 33.869 2.45851 33.4814C0.803239 30.0936 1.48348 26.0253 4.15132 23.3575C5.81972 21.6891 8.03774 20.7702 10.3971 20.7702C12.7564 20.7702 14.9744 21.6891 16.6428 23.3575C18.3109 25.0256 19.2298 27.2436 19.2298 29.6029C19.2298 31.9622 18.3109 34.1802 16.6425 35.8486C13.9746 38.5165 9.90633 39.1967 6.51857 37.5414C6.131 37.3519 5.66317 37.5128 5.47396 37.9003C5.28444 38.2882 5.44496 38.756 5.83284 38.9453C7.28517 39.6551 8.8434 39.9999 10.3903 39.9999C13.089 39.9996 15.7517 38.9492 17.7475 36.9534C18.6627 36.0381 19.386 34.9822 19.8978 33.8345L23.2642 35.6829C23.3814 35.7473 23.5108 35.7794 23.6402 35.7794C23.7696 35.7794 23.8993 35.7473 24.0161 35.6829L39.5948 27.1288C39.8447 26.9915 40 26.7291 40 26.444V21.0146C40 20.5831 39.6503 20.2334 39.2188 20.2334C38.7873 20.2334 38.4375 20.5831 38.4375 21.0146V25.9817L24.4239 33.6767V18.3508L29.0488 15.8111V19.837C29.0488 20.1135 29.1947 20.3692 29.4324 20.5096C29.5551 20.5819 29.6924 20.6182 29.83 20.6182C29.9594 20.6182 30.0891 20.5862 30.2066 20.5215L33.5449 18.684C33.7946 18.5467 33.9493 18.2845 33.9493 17.9998V13.12L38.4375 10.6558V14.7649C38.4375 15.1965 38.7873 15.5462 39.2188 15.5462C39.6503 15.5462 40 15.1965 40 14.7649V9.33556C40 9.05053 39.8447 8.78777 39.5948 8.65074ZM23.6402 1.67229L37.5955 9.33556L33.1934 11.7529L19.238 4.08959L23.6402 1.67229ZM23.6402 16.9985L9.68477 9.33556L14.2484 6.82945L28.2041 14.4924L23.6402 16.9985ZM29.827 13.6013L15.8716 5.93834L17.6148 4.981L31.5705 12.644L29.827 13.6013ZM17.7475 22.2527C15.784 20.2892 13.1735 19.208 10.3971 19.208C9.87185 19.208 9.35305 19.2468 8.8431 19.3227V10.6558L22.8617 18.3535V33.6794L20.4285 32.3434C20.6681 31.4614 20.792 30.5416 20.792 29.6029C20.792 26.8264 19.7107 24.2159 17.7475 22.2527ZM32.3871 17.5381L30.6113 18.5156V14.9532L32.3871 13.9782V17.5381Z" fill="white"/>
<path d="M39.2188 17.1047C39.0134 17.1047 38.8117 17.1884 38.6664 17.3336C38.5211 17.4789 38.4375 17.6803 38.4375 17.886C38.4375 18.0914 38.5211 18.2928 38.6664 18.438C38.8117 18.5836 39.0134 18.6669 39.2188 18.6669C39.4241 18.6669 39.6259 18.5836 39.7711 18.438C39.9164 18.2928 40 18.0914 40 17.886C40 17.6803 39.9164 17.4789 39.7711 17.3336C39.6259 17.1884 39.4241 17.1047 39.2188 17.1047Z" fill="white"/>
<path d="M7.77008 30.3843C7.96997 30.3843 8.17017 30.308 8.32245 30.1557C8.62763 29.8505 8.62763 29.3559 8.32245 29.0507L7.78137 28.5093H12.3987C13.5187 28.5093 14.4299 29.4205 14.4299 30.5405C14.4299 31.6605 13.5187 32.5718 12.3987 32.5718H9.66278C9.23126 32.5718 8.88153 32.9215 8.88153 33.353C8.88153 33.7843 9.23126 34.134 9.66278 34.134H12.3987C14.3802 34.134 15.9924 32.5221 15.9924 30.5405C15.9924 28.559 14.3802 26.9471 12.3987 26.9471H7.78137L8.32245 26.4057C8.62763 26.1005 8.62763 25.6059 8.32245 25.3007C8.01758 24.9958 7.52289 24.9958 7.21771 25.3007L5.34271 27.1757C5.03784 27.4809 5.03784 27.9755 5.34271 28.2807L7.21771 30.1554C7.3703 30.308 7.57019 30.3843 7.77008 30.3843Z" fill="white"/>
<path d="M3.59955 37.1835C3.37738 37.1835 3.15674 37.0889 3.00262 36.9055L3.0011 36.9036C2.72339 36.5734 2.76611 36.0809 3.09631 35.8032C3.42651 35.5252 3.91937 35.5679 4.19708 35.8981C4.47449 36.2286 4.43268 36.7221 4.10248 36.9998C3.95569 37.1231 3.77716 37.1835 3.59955 37.1835Z" fill="white"/>
</g>
<defs>
<clipPath id="clip0_0_623">
<rect width="40" height="40" fill="white"/>
</clipPath>
</defs>
</svg>
