<svg width="21" height="20" viewBox="0 0 21 20" fill="none" xmlns="http://www.w3.org/2000/svg">
<path d="M8.57999 11.04C8.51999 11.04 7.19999 11.04 6.59999 11.04C6.27999 11.04 6.17999 10.92 6.17999 10.62C6.17999 9.82002 6.17999 9.00002 6.17999 8.20002C6.17999 7.88002 6.29999 7.78002 6.59999 7.78002H8.57999C8.57999 7.72002 8.57999 6.56002 8.57999 6.02002C8.57999 5.22002 8.71999 4.46002 9.11999 3.76002C9.53999 3.04002 10.14 2.56002 10.9 2.28002C11.4 2.10002 11.9 2.02002 12.44 2.02002H14.4C14.68 2.02002 14.8 2.14002 14.8 2.42002V4.70002C14.8 4.98002 14.68 5.10002 14.4 5.10002C13.86 5.10002 13.32 5.10002 12.78 5.12002C12.24 5.12002 11.96 5.38002 11.96 5.94002C11.94 6.54002 11.96 7.12002 11.96 7.74002H14.28C14.6 7.74002 14.72 7.86002 14.72 8.18002V10.6C14.72 10.92 14.62 11.02 14.28 11.02C13.56 11.02 12.02 11.02 11.96 11.02V17.54C11.96 17.88 11.86 18 11.5 18C10.66 18 9.83999 18 8.99999 18C8.69999 18 8.57999 17.88 8.57999 17.58C8.57999 15.48 8.57999 11.1 8.57999 11.04Z" fill="white"/>
</svg>
