<svg width="19" height="18" viewBox="0 0 19 18" fill="none" xmlns="http://www.w3.org/2000/svg">
<g clip-path="url(#clip0_0_755)">
<path d="M13.5325 0H5.46721C2.72829 0 0.5 2.2284 0.5 4.96732V13.0326C0.5 15.7716 2.72829 17.9999 5.46721 17.9999H13.5325C16.2716 17.9999 18.4999 15.7715 18.4999 13.0326V4.96732C18.5 2.2284 16.2716 0 13.5325 0ZM16.903 13.0326C16.903 14.891 15.391 16.4029 13.5326 16.4029H5.46721C3.6089 16.403 2.09704 14.891 2.09704 13.0326V4.96732C2.09704 3.10901 3.6089 1.59704 5.46721 1.59704H13.5325C15.3909 1.59704 16.9029 3.10901 16.9029 4.96732V13.0326H16.903Z" fill="white"/>
<path d="M9.49993 4.36182C6.94244 4.36182 4.86182 6.44244 4.86182 8.99993C4.86182 11.5573 6.94244 13.6378 9.49993 13.6378C12.0574 13.6378 14.1381 11.5573 14.1381 8.99993C14.1381 6.44244 12.0574 4.36182 9.49993 4.36182ZM9.49993 12.0407C7.82315 12.0407 6.45885 10.6766 6.45885 8.99983C6.45885 7.32294 7.82304 5.95875 9.49993 5.95875C11.1768 5.95875 12.541 7.32294 12.541 8.99983C12.541 10.6766 11.1767 12.0407 9.49993 12.0407Z" fill="white"/>
<path d="M14.3325 3.00781C14.0248 3.00781 13.7226 3.13238 13.5053 3.35064C13.2869 3.56784 13.1614 3.87021 13.1614 4.17897C13.1614 4.48678 13.287 4.78904 13.5053 5.0073C13.7225 5.2245 14.0248 5.35013 14.3325 5.35013C14.6413 5.35013 14.9426 5.2245 15.1609 5.0073C15.3791 4.78904 15.5037 4.48667 15.5037 4.17897C15.5037 3.87021 15.3791 3.56784 15.1609 3.35064C14.9437 3.13238 14.6413 3.00781 14.3325 3.00781Z" fill="white"/>
</g>
<defs>
<clipPath id="clip0_0_755">
<rect width="18" height="18" fill="white" transform="translate(0.5)"/>
</clipPath>
</defs>
</svg>
