<svg width="21" height="20" viewBox="0 0 21 20" fill="none" xmlns="http://www.w3.org/2000/svg">
<path d="M18.5 18.0001V12.1401C18.5 9.26006 17.88 7.06006 14.52 7.06006C12.9 7.06006 11.82 7.94006 11.38 8.78006H11.34V7.32006H8.15997V18.0001H11.48V12.7001C11.48 11.3001 11.74 9.96006 13.46 9.96006C15.16 9.96006 15.18 11.5401 15.18 12.7801V17.9801H18.5V18.0001Z" fill="white"/>
<path d="M2.76001 7.31982H6.08001V17.9998H2.76001V7.31982Z" fill="white"/>
<path d="M4.42 2C3.36 2 2.5 2.86 2.5 3.92C2.5 4.98 3.36 5.86 4.42 5.86C5.48 5.86 6.34 4.98 6.34 3.92C6.34 2.86 5.48 2 4.42 2Z" fill="white"/>
</svg>
