<svg width="113" height="112" viewBox="0 0 113 112" fill="none" xmlns="http://www.w3.org/2000/svg">
<path d="M58.4208 7.80492C71.2896 8.24312 83.338 13.3447 92.6886 22.1941C93.2551 22.7299 93.8049 23.2614 94.3378 23.7887C94.3873 23.8382 94.4153 23.8979 94.4218 23.9679C94.5693 25.5415 94.7055 27.1072 94.8306 28.6649C95.1909 33.1375 95.3407 37.6175 95.28 42.1049C95.2002 47.9177 94.6332 53.8481 93.3186 59.5279C92.0241 65.1186 90.0188 70.1894 87.3028 74.7403C85.06 78.4979 82.4658 81.9121 79.5202 84.9827C77.8869 86.6851 76.3133 88.2093 74.7994 89.5551C71.4403 92.539 68.4201 95.0049 65.7386 96.9527C62.6819 99.1731 59.6351 101.395 56.598 103.618C56.5862 103.627 56.572 103.631 56.5574 103.631C56.5428 103.631 56.5286 103.627 56.5168 103.618C53.7411 101.591 50.9481 99.5553 48.1378 97.5113C45.0494 95.2648 42.0417 92.8512 39.1148 90.2705C36.7273 88.1649 34.6217 86.1195 32.798 84.1343C30.3275 81.4435 28.1159 78.5082 26.1634 75.3283C23.6761 71.2758 21.7688 66.8532 20.4416 62.0605C18.9982 56.8525 18.2394 51.4135 17.9692 46.0109C17.7676 41.978 17.7653 37.9278 17.9622 33.8603C18.1181 30.6497 18.3617 27.3564 18.693 23.9805C18.6995 23.9152 18.7257 23.8592 18.7714 23.8125C23.9701 18.5018 29.8561 14.4829 36.4296 11.7557C43.41 8.86052 50.7404 7.54358 58.4208 7.80492ZM89.127 55.4735C89.9292 50.9613 90.317 46.3707 90.352 41.8263C90.352 41.7311 90.3842 41.6359 90.3842 41.5337C90.4038 36.4041 90.1672 31.2937 89.6744 26.2023C89.6699 26.1554 89.6485 26.1117 89.6142 26.0791C82.4588 19.1701 73.3938 14.6453 63.5532 13.1991C59.1927 12.5588 54.7435 12.5271 50.2056 13.1039C49.2583 13.2243 48.3305 13.375 47.4224 13.5561C38.314 15.3714 30.3415 19.5388 23.5048 26.0581C23.4647 26.0973 23.4418 26.1449 23.4362 26.2009C23.0703 30.105 22.8449 33.8869 22.76 37.5465C22.7245 39.08 22.7315 40.9084 22.781 43.0317C22.8874 47.6517 23.3279 52.0076 24.1026 56.0993C24.5683 58.5549 25.1839 60.9354 25.9492 63.2407C28.3558 70.4927 32.6706 77.1315 38.1306 82.5775C42.808 87.2423 47.9712 91.3807 53.4046 95.2517C54.4098 95.9676 55.4383 96.7138 56.4902 97.4903C56.5313 97.5211 56.5728 97.5211 56.6148 97.4903C58.4703 96.1482 60.2963 94.8224 62.093 93.5129C67.1736 89.8085 72.096 85.6575 76.4318 81.0753C77.0525 80.4192 77.6694 79.7187 78.2826 78.9739C81.3738 75.2205 83.9708 71.1675 85.83 66.7645C87.3149 63.2477 88.4139 59.4841 89.127 55.4735Z" fill="#EA2127"/>
<path d="M56.5966 25.7543L58.4264 21.8049C58.4516 21.7517 58.4665 21.7545 58.4712 21.8133C58.4945 22.1306 58.5011 22.4829 58.4908 22.8703C58.3583 27.9364 58.2397 32.8532 58.1352 37.6207C58.1343 37.6739 58.1184 37.7219 58.0876 37.7649L56.6022 39.8551C56.5974 39.8621 56.591 39.8679 56.5834 39.8719C56.5758 39.8759 56.5673 39.878 56.5587 39.878C56.55 39.878 56.5415 39.8759 56.5337 39.8719C56.5259 39.8679 56.5192 39.8621 56.514 39.8551L55.0496 37.8055C55.004 37.7416 54.9787 37.6655 54.9768 37.5871L54.6114 21.9029C54.6077 21.7209 54.6441 21.7125 54.7206 21.8777L56.5168 25.7543C56.5201 25.7621 56.5257 25.7687 56.5328 25.7734C56.5399 25.7781 56.5482 25.7806 56.5567 25.7806C56.5652 25.7806 56.5735 25.7781 56.5806 25.7734C56.5877 25.7687 56.5933 25.7621 56.5966 25.7543Z" fill="#EA2127"/>
<path d="M53.9828 37.3492L49.7534 25.0964C49.7455 25.0731 49.7465 25.0477 49.756 25.0252C49.7656 25.0027 49.7831 24.9847 49.8052 24.9746L53.8064 23.1448C53.938 23.0851 54.0038 23.1276 54.0038 23.2722L54.0374 37.3408C54.0374 37.4538 54.0192 37.4566 53.9828 37.3492Z" fill="#EA2127"/>
<path d="M63.3684 25.0699L59.1684 37.2401C59.1208 37.3792 59.0965 37.375 59.0956 37.2275C59.0751 32.572 59.0863 27.8783 59.1292 23.1463C59.1301 23.0922 59.1549 23.0763 59.2034 23.0987L63.3334 24.9859C63.3707 25.0027 63.3824 25.0307 63.3684 25.0699Z" fill="#EA2127"/>
<path d="M66.3028 26.3744L59.9286 38.3682C59.9265 38.3724 59.9228 38.3756 59.9184 38.3772C59.9139 38.3788 59.9091 38.3786 59.9048 38.3766L59.8908 38.3696C59.8867 38.3678 59.8834 38.3644 59.8816 38.3603C59.8798 38.3562 59.8795 38.3515 59.881 38.3472L64.0054 25.4084C64.0062 25.4061 64.0074 25.4039 64.009 25.4021C64.0107 25.4003 64.0127 25.3988 64.0149 25.3977C64.0171 25.3967 64.0195 25.3961 64.022 25.396C64.0244 25.3959 64.0269 25.3963 64.0292 25.3972L66.2944 26.3478C66.2968 26.3488 66.299 26.3504 66.3008 26.3523C66.3026 26.3543 66.304 26.3566 66.3048 26.3592C66.3056 26.3617 66.3058 26.3644 66.3055 26.367C66.3051 26.3696 66.3042 26.3722 66.3028 26.3744Z" fill="#EA2127"/>
<path d="M46.8764 26.3244L49.0478 25.4116C49.0547 25.4088 49.0622 25.4075 49.0697 25.4077C49.0772 25.408 49.0846 25.4098 49.0914 25.4131C49.0982 25.4164 49.1043 25.4211 49.1093 25.4268C49.1144 25.4326 49.1182 25.4393 49.1206 25.4466L53.2338 38.356C53.2357 38.362 53.2353 38.3685 53.2327 38.3742C53.2301 38.3799 53.2254 38.3844 53.2196 38.3869C53.2138 38.3893 53.2074 38.3895 53.2014 38.3874C53.1955 38.3854 53.1906 38.3811 53.1876 38.3756L46.8386 26.428C46.8134 26.3795 46.826 26.3449 46.8764 26.3244Z" fill="#EA2127"/>
<path d="M46.0532 26.7024L52.37 38.923C52.4195 39.0191 52.405 39.0298 52.3266 38.9552C51.9411 38.5874 51.5328 38.181 51.1016 37.7358C47.9945 34.5214 44.761 31.195 41.401 27.7566C41.3943 27.7501 41.3896 27.7419 41.3873 27.7328C41.385 27.7238 41.3852 27.7143 41.3879 27.7053C41.3907 27.6963 41.3958 27.6881 41.4027 27.6816C41.4097 27.6751 41.4183 27.6705 41.4276 27.6684L45.9496 26.6534C45.9963 26.6431 46.0308 26.6594 46.0532 26.7024Z" fill="#EA2127"/>
<path d="M60.7672 38.8782L67.0616 26.701C67.0831 26.659 67.1167 26.6431 67.1624 26.6534L71.6788 27.6656C71.6884 27.6677 71.6973 27.6724 71.7045 27.6791C71.7117 27.6858 71.717 27.6944 71.7197 27.7039C71.7224 27.7133 71.7225 27.7234 71.72 27.7329C71.7175 27.7424 71.7124 27.7511 71.7054 27.758L60.8358 38.9286C60.7014 39.0658 60.6785 39.049 60.7672 38.8782Z" fill="#EA2127"/>
<path d="M51.2892 39.3094L38.2524 31.2468C38.2464 31.243 38.2413 31.238 38.2374 31.2322C38.2334 31.2263 38.2307 31.2197 38.2294 31.2127C38.228 31.2058 38.2282 31.1986 38.2297 31.1917C38.2313 31.1848 38.2342 31.1783 38.2384 31.1726L40.4574 28.1248C40.4901 28.08 40.526 28.0777 40.5652 28.1178L51.3368 39.2506C51.4777 39.3962 51.4619 39.4158 51.2892 39.3094Z" fill="#EA2127"/>
<path d="M74.8386 31.2606L61.9054 39.2588C61.6767 39.3997 61.6557 39.3736 61.8424 39.1804L72.551 28.1176C72.5883 28.0784 72.6233 28.0807 72.656 28.1246L74.854 31.1486C74.8885 31.1953 74.8834 31.2326 74.8386 31.2606Z" fill="#EA2127"/>
<path d="M38.1082 34.6697L36.7768 37.4879C36.7716 37.4992 36.769 37.5116 36.7692 37.5242C36.7694 37.5368 36.7725 37.5493 36.7782 37.5607L38.7032 41.4121C38.79 41.5857 38.7606 41.6086 38.615 41.4807L34.5746 37.9289C34.5642 37.9193 34.5572 37.9065 34.5546 37.8923C34.5521 37.8782 34.5542 37.8635 34.5606 37.8505L37.5062 32.2043C37.5342 32.1493 37.5748 32.1371 37.628 32.1679C41.1196 34.1569 44.6117 36.1444 48.1042 38.1305C48.1182 38.1389 48.1219 38.1506 48.1154 38.1655V38.1669C48.1089 38.18 48.0986 38.1842 48.0846 38.1795C44.8571 37.0082 41.5788 35.8191 38.2496 34.6123C38.1852 34.589 38.1381 34.6081 38.1082 34.6697Z" fill="#EA2127"/>
<path d="M74.8932 34.598C71.6079 35.7936 68.3146 36.9883 65.0134 38.182C65.0013 38.1867 64.9924 38.1834 64.9868 38.1722V38.1708C64.9793 38.155 64.9831 38.1424 64.998 38.133C68.5129 36.1366 72.0227 34.1398 75.5274 32.1424C75.5321 32.1397 75.5374 32.1381 75.5428 32.1375C75.5482 32.1369 75.5537 32.1374 75.559 32.1389C75.5642 32.1405 75.5691 32.1431 75.5733 32.1466C75.5774 32.1501 75.5809 32.1544 75.5834 32.1592L78.543 37.8334C78.5526 37.851 78.5559 37.8713 78.5524 37.8912C78.5488 37.911 78.5386 37.9291 78.5234 37.9426L74.4816 41.4944C74.3584 41.6027 74.3337 41.5836 74.4074 41.437L76.3282 37.5926C76.3478 37.5553 76.3483 37.5175 76.3296 37.4792L74.9926 34.6386C74.9711 34.5957 74.938 34.5822 74.8932 34.598Z" fill="#EA2127"/>
<path d="M46.2632 38.4596C46.2679 38.4568 46.2716 38.4577 46.2744 38.4624L46.2968 38.4974C46.3015 38.5058 46.3001 38.5128 46.2926 38.5184L28.787 50.8244C28.6647 50.9112 28.6428 50.8906 28.7212 50.7628C29.4725 49.5438 30.2113 48.3394 30.9374 47.1494C31.0774 46.9212 31.2902 46.8176 31.5142 46.693C36.4441 43.9695 41.3604 41.225 46.2632 38.4596Z" fill="#EA2127"/>
<path d="M67.6076 38.9003C72.4404 41.6014 77.2303 44.2726 81.9772 46.9139C82.0276 46.9414 82.0696 46.9815 82.099 47.0301L84.3908 50.7625C84.4692 50.8904 84.4468 50.9114 84.3236 50.8255C78.5145 46.7394 72.6793 42.6364 66.818 38.5167C66.8077 38.5102 66.8059 38.5018 66.8124 38.4915V38.4901C66.8199 38.4789 66.8292 38.4766 66.8404 38.4831C67.0952 38.6175 67.3509 38.7566 67.6076 38.9003Z" fill="#EA2127"/>
<path d="M27.7034 52.5954C34.4337 47.9577 41.1089 43.3512 47.729 38.776C47.7458 38.7648 47.7603 38.7671 47.7724 38.783H47.7738C47.7822 38.7951 47.7813 38.8059 47.771 38.8152C41.709 44.3695 35.6493 49.9205 29.592 55.4682C29.588 55.472 29.5832 55.4748 29.5779 55.4765C29.5727 55.4782 29.5671 55.4787 29.5617 55.478C29.5562 55.4774 29.5509 55.4755 29.5463 55.4726C29.5416 55.4697 29.5376 55.4658 29.5346 55.4612L27.6782 52.7298C27.6418 52.6766 27.6502 52.6318 27.7034 52.5954Z" fill="#EA2127"/>
<path d="M85.4436 52.7127L83.6152 55.4091C83.5741 55.4697 83.527 55.4753 83.4738 55.4259C77.4248 49.8828 71.3876 44.3524 65.362 38.8345C65.3508 38.8242 65.3503 38.8126 65.3606 38.7995V38.7981C65.3708 38.785 65.383 38.7836 65.397 38.7939C72.075 43.4008 78.7506 48.0045 85.424 52.6049C85.4669 52.6338 85.4734 52.6697 85.4436 52.7127Z" fill="#EA2127"/>
<path d="M32.133 56.7939C33.5414 59.4315 34.9433 62.0663 36.3386 64.6983C36.3442 64.7095 36.3419 64.7184 36.3316 64.7249L36.3302 64.7263C36.3143 64.7366 36.3003 64.7338 36.2882 64.7179C34.2031 61.8731 32.1083 59.0199 30.0036 56.1583C29.9901 56.1405 29.9838 56.1181 29.9859 56.0957C29.988 56.0732 29.9983 56.0521 30.0148 56.0365C36.3428 50.3488 42.6713 44.6587 49.0002 38.9663C49.0123 38.9561 49.024 38.9566 49.0352 38.9678V38.9692C49.0464 38.9804 49.0464 38.9916 49.0352 39.0028C43.4035 44.8893 37.7759 50.7697 32.1526 56.6441C32.1097 56.6889 32.1031 56.7389 32.133 56.7939Z" fill="#EA2127"/>
<path d="M80.9832 56.6706C75.358 50.7897 69.7225 44.9013 64.0768 39.0054C64.0656 38.9942 64.0656 38.983 64.0768 38.9718L64.0782 38.9704C64.0894 38.9583 64.1011 38.9578 64.1132 38.969C70.4477 44.6633 76.772 50.3496 83.086 56.028C83.1059 56.0461 83.1185 56.0709 83.1214 56.0975C83.1242 56.1241 83.1171 56.1507 83.1014 56.1722L76.8168 64.7206C76.8084 64.7309 76.7991 64.7327 76.7888 64.7262L76.7552 64.7052C76.7524 64.7033 76.7519 64.701 76.7538 64.6982C78.1715 62.0746 79.5855 59.4286 80.9958 56.7602C81.0032 56.7458 81.006 56.7294 81.0037 56.7134C81.0015 56.6974 80.9943 56.6824 80.9832 56.6706Z" fill="#EA2127"/>
<path d="M34.184 41.9946L35.479 39.784C35.4821 39.7785 35.4864 39.7737 35.4915 39.7699C35.4966 39.7661 35.5024 39.7634 35.5085 39.762C35.5147 39.7605 35.5211 39.7604 35.5274 39.7615C35.5336 39.7626 35.5395 39.765 35.5448 39.7686L37.8226 41.3492C37.8303 41.3543 37.8363 41.3617 37.8398 41.3703C37.8432 41.3789 37.844 41.3883 37.8421 41.3974C37.8401 41.4064 37.8355 41.4147 37.8287 41.4211C37.822 41.4274 37.8135 41.4317 37.8044 41.4332L34.2316 42.0646C34.2228 42.0662 34.2136 42.0653 34.2054 42.0618C34.1971 42.0583 34.19 42.0526 34.1849 42.0451C34.1799 42.0377 34.1771 42.029 34.1769 42.02C34.1768 42.011 34.1792 42.0022 34.184 41.9946Z" fill="#EA2127"/>
<path d="M75.3006 41.3462L77.5602 39.7684C77.5657 39.7646 77.572 39.762 77.5786 39.7607C77.5852 39.7594 77.592 39.7595 77.5985 39.7609C77.6051 39.7624 77.6113 39.7651 77.6167 39.7691C77.6222 39.773 77.6268 39.778 77.6302 39.7838L78.9308 41.993C78.9354 42.0011 78.9377 42.0102 78.9373 42.0195C78.9369 42.0288 78.9339 42.0377 78.9286 42.0454C78.9233 42.053 78.916 42.059 78.9075 42.0626C78.8989 42.0662 78.8895 42.0673 78.8804 42.0658L75.3202 41.4344C75.3107 41.4327 75.3019 41.4282 75.295 41.4215C75.288 41.4149 75.2832 41.4063 75.2811 41.3968C75.279 41.3874 75.2797 41.3776 75.2832 41.3686C75.2867 41.3596 75.2927 41.3518 75.3006 41.3462Z" fill="#EA2127"/>
<path d="M32.0546 45.3388L33.5134 42.9658C33.5423 42.9192 33.5834 42.8902 33.6366 42.879L38.7802 41.7716C38.9725 41.7296 38.9818 41.7548 38.8082 41.8472L32.1078 45.3962C32.021 45.442 32.0033 45.4228 32.0546 45.3388Z" fill="#EA2127"/>
<path d="M80.99 45.3894L74.3498 41.8698C74.1454 41.7615 74.1561 41.7321 74.382 41.7816L79.5102 42.8862C79.5398 42.8934 79.5655 42.912 79.5816 42.938L81.0516 45.325C81.1104 45.4211 81.0898 45.4426 80.99 45.3894Z" fill="#EA2127"/>
<path d="M46.5922 48.2678L44.971 45.4231C44.9668 45.4156 44.9649 45.4071 44.9654 45.3986C44.9659 45.3901 44.9688 45.3819 44.9738 45.375C44.9788 45.3681 44.9857 45.3627 44.9936 45.3596C45.0016 45.3565 45.0102 45.3556 45.0186 45.3573L50.102 46.3093C50.1119 46.3114 50.1208 46.3168 50.1272 46.3247L53.0742 49.8009C53.0786 49.806 53.0817 49.8121 53.0834 49.8186C53.0851 49.8252 53.0853 49.832 53.084 49.8386L52.4204 53.1007C52.4181 53.1103 52.4126 53.119 52.4049 53.1252C52.3971 53.1314 52.3875 53.1349 52.3775 53.1351C52.3676 53.1352 52.3579 53.1321 52.3499 53.1261C52.342 53.1201 52.3362 53.1117 52.3336 53.102L51.4194 49.1499C51.4176 49.141 51.4131 49.133 51.4066 49.1267C51.4001 49.1205 51.3919 49.1164 51.383 49.1149L46.623 48.2903C46.6165 48.289 46.6104 48.2864 46.6051 48.2825C46.5998 48.2786 46.5954 48.2736 46.5922 48.2678Z" fill="#EA2127"/>
<path d="M61.6884 49.1989C61.3972 50.43 61.1135 51.6349 60.8372 52.8137C60.8139 52.9126 60.8031 53.0134 60.805 53.1161C60.8059 53.1712 60.7863 53.1796 60.7462 53.1413C60.7117 53.1096 60.6897 53.0704 60.6804 53.0237C60.4648 51.9672 60.2497 50.9246 60.035 49.8961C60.0247 49.8485 60.0355 49.8056 60.0672 49.7673L62.954 46.3611C62.9829 46.3275 63.0184 46.307 63.0604 46.2995L68.1004 45.3573C68.1081 45.3557 68.1161 45.3563 68.1234 45.3592C68.1307 45.362 68.1371 45.3669 68.1417 45.3733C68.1463 45.3797 68.1489 45.3872 68.1493 45.3951C68.1497 45.4029 68.1478 45.4107 68.1438 45.4175L66.552 48.2147C66.5249 48.2632 66.4843 48.2922 66.4302 48.3015L61.7892 49.1037C61.7351 49.113 61.7015 49.1448 61.6884 49.1989Z" fill="#EA2127"/>
<path d="M70.5688 51.6598L70.3252 46.3888C70.3243 46.3552 70.3374 46.3482 70.3644 46.3678C70.3766 46.3762 70.385 46.3874 70.3896 46.4014C71.0402 48.5658 71.686 50.6877 72.3272 52.7672C72.3394 52.8082 72.3314 52.8446 72.3034 52.8764L65.2292 61.1308C65.2233 61.1381 65.2155 61.1438 65.2066 61.1471C65.1977 61.1505 65.1881 61.1514 65.1786 61.1499C65.1692 61.1483 65.1602 61.1443 65.1527 61.1383C65.1451 61.1322 65.1392 61.1243 65.1354 61.1154L64.2338 58.8614C64.2161 58.8166 64.2236 58.7755 64.2562 58.7382L70.5226 51.7886C70.5562 51.7522 70.5716 51.7092 70.5688 51.6598Z" fill="#EA2127"/>
<path d="M42.6078 51.8086L48.8658 58.7498C48.8938 58.7815 48.898 58.816 48.8784 58.8534L47.6254 61.2362C47.5937 61.2959 47.5563 61.2992 47.5134 61.246L40.8214 52.8964C40.7878 52.8544 40.7789 52.8077 40.7948 52.7564L42.654 46.6468C42.7492 46.3322 42.7893 46.3392 42.7744 46.6678L42.5462 51.6364C42.5434 51.7026 42.5639 51.76 42.6078 51.8086Z" fill="#EA2127"/>
<path d="M35.01 58.3841C36.1533 61.4146 37.299 64.4498 38.447 67.4897C38.4517 67.5027 38.4475 67.5121 38.4344 67.5177C38.4185 67.5251 38.4069 67.5209 38.3994 67.5051C36.7194 64.0527 35.0161 60.5611 33.2894 57.0303C33.2698 56.9892 33.2759 56.9519 33.3076 56.9183L40.8032 49.0153C40.8779 48.9369 40.8984 48.949 40.8648 49.0517C40.4485 50.3294 40.0416 51.6029 39.644 52.8723C39.5759 53.0869 39.4648 53.2811 39.3108 53.4547C37.8753 55.0656 36.4478 56.6761 35.0282 58.2861C35.003 58.315 34.9969 58.3477 35.01 58.3841Z" fill="#EA2127"/>
<path d="M78.0614 58.2595C76.6278 56.6355 75.1993 55.0227 73.776 53.4211C73.6444 53.2727 73.5459 53.0963 73.4806 52.8919C73.0587 51.5713 72.6485 50.2917 72.25 49.0531C72.2164 48.9505 72.2369 48.9383 72.3116 49.0167L79.7736 56.8833C79.8249 56.9384 79.8343 57 79.8016 57.0681C78.3176 60.1127 76.8308 63.1661 75.3412 66.2283C75.1321 66.6605 74.9473 67.0249 74.7868 67.3217C74.6599 67.5579 74.644 67.5504 74.7392 67.2993L78.0908 58.4149C78.1122 58.3571 78.1025 58.3053 78.0614 58.2595Z" fill="#EA2127"/>
<path d="M38.4316 61.096C38.4045 61.1277 38.3957 61.1641 38.405 61.2052C39.1199 64.1499 39.8209 67.0703 40.5078 69.9664C40.5106 69.9786 40.5064 69.9865 40.4952 69.9902H40.4938C40.4779 69.9949 40.4667 69.9893 40.4602 69.9734C38.9594 66.1888 37.4633 62.4284 35.9718 58.6922C35.9391 58.6101 35.9522 58.5363 36.011 58.471L40.0976 53.977C40.1396 53.9303 40.1793 53.9322 40.2166 53.9826L42.2452 56.714C42.2539 56.726 42.2583 56.7406 42.2575 56.7554C42.2568 56.7702 42.2509 56.7842 42.241 56.7952L38.4316 61.096Z" fill="#EA2127"/>
<path d="M70.843 56.7436L72.9402 53.9282C72.9416 53.9261 72.9436 53.9243 72.9458 53.923C72.9481 53.9218 72.9506 53.9211 72.9531 53.9209C72.9557 53.9208 72.9583 53.9212 72.9606 53.9223C72.963 53.9233 72.9651 53.9248 72.9668 53.9268L77.1822 58.5566C77.1844 58.559 77.1858 58.562 77.1863 58.5653C77.1868 58.5685 77.1863 58.5718 77.185 58.5748L72.6518 69.9638C72.6502 69.9678 72.6472 69.9711 72.6432 69.9729C72.6393 69.9747 72.6349 69.975 72.6308 69.9736L72.6168 69.9694C72.6131 69.9678 72.61 69.965 72.6082 69.9614C72.6064 69.9578 72.606 69.9537 72.607 69.9498L74.7196 61.1466C74.7202 61.1439 74.7202 61.141 74.7194 61.1383C74.7187 61.1357 74.7173 61.1332 74.7154 61.1312L70.843 56.7646C70.8406 56.7616 70.8393 56.7579 70.8393 56.7541C70.8393 56.7503 70.8406 56.7466 70.843 56.7436Z" fill="#EA2127"/>
<path d="M56.5098 62.8601L55.0524 66.1263C55.0394 66.1555 55.0197 66.1812 54.995 66.2016C54.9702 66.222 54.941 66.2365 54.9096 66.2439L51.53 67.0475C51.4815 67.0597 51.446 67.0429 51.4236 66.9971L50.5178 65.1561C50.4963 65.1104 50.5103 65.0833 50.5598 65.0749L53.5656 64.5303C53.644 64.5163 53.7159 64.4874 53.7812 64.4435L56.423 62.6809C56.4279 62.6777 56.432 62.6735 56.4353 62.6686C56.4385 62.6637 56.4407 62.6583 56.4417 62.6525C56.4428 62.6468 56.4426 62.6408 56.4414 62.6351C56.4401 62.6294 56.4376 62.6241 56.4342 62.6193L54.8046 60.4185C54.7523 60.3485 54.6861 60.2967 54.6058 60.2631L52.4764 59.3727C52.4241 59.3503 52.3938 59.3111 52.3854 59.2551L52.0788 57.2657C52.0695 57.2041 52.0956 57.1771 52.1572 57.1845L55.4612 57.5793C55.5172 57.5859 55.5615 57.612 55.5942 57.6577L56.5084 58.9499C56.514 58.9577 56.5213 58.9641 56.5298 58.9685C56.5384 58.9729 56.5478 58.9752 56.5574 58.9752C56.567 58.9752 56.5764 58.9729 56.585 58.9685C56.5935 58.9641 56.6008 58.9577 56.6064 58.9499L57.5192 57.6563C57.55 57.6125 57.592 57.5873 57.6452 57.5807L60.9786 57.1817C60.9869 57.1805 60.9954 57.1813 61.0034 57.1839C61.0113 57.1866 61.0185 57.1912 61.0244 57.1972C61.0303 57.2032 61.0347 57.2105 61.0372 57.2185C61.0397 57.2265 61.0402 57.235 61.0388 57.2433L60.7294 59.2537C60.7201 59.3107 60.6888 59.3503 60.6356 59.3727L58.46 60.2827C58.4124 60.3023 58.3737 60.3327 58.3438 60.3737L56.6806 62.6165C56.6772 62.6211 56.6748 62.6264 56.6735 62.632C56.6722 62.6376 56.6721 62.6434 56.6732 62.649C56.6742 62.6547 56.6764 62.6601 56.6796 62.6648C56.6828 62.6696 56.687 62.6736 56.6918 62.6767C57.4805 63.1985 58.3167 63.758 59.2006 64.3553C59.3593 64.4627 59.5333 64.5331 59.7228 64.5667C60.6701 64.7338 61.6095 64.9013 62.541 65.0693C62.597 65.0796 62.6124 65.1099 62.5872 65.1603L61.6884 67.0097C61.6697 67.048 61.6399 67.0625 61.5988 67.0531L58.2206 66.2481C58.1844 66.2394 58.1507 66.2225 58.1221 66.1987C58.0934 66.1749 58.0706 66.1449 58.0554 66.1109L56.6022 62.8601C56.5714 62.7911 56.5406 62.7911 56.5098 62.8601Z" fill="#EA2127"/>
<path d="M41.072 64.0261C41.38 66.3753 41.6889 68.724 41.9988 71.0723C42.0007 71.0853 41.9951 71.0933 41.982 71.0961H41.9806C41.9675 71.0989 41.9591 71.0937 41.9554 71.0807C41.1042 67.9223 40.2558 64.7685 39.4102 61.6195C39.3971 61.5691 39.4069 61.5229 39.4396 61.4809L42.6302 57.4951C42.6722 57.4419 42.7161 57.4405 42.7618 57.4909L44.5986 59.5083C44.6114 59.5223 44.6187 59.5404 44.6192 59.5592C44.6197 59.578 44.6134 59.5962 44.6014 59.6105L41.1182 63.8651C41.079 63.9117 41.0636 63.9654 41.072 64.0261Z" fill="#EA2127"/>
<path d="M72.0204 63.8946L68.5162 59.6176C68.4845 59.5784 68.4854 59.5401 68.519 59.5028L70.3768 57.463C70.382 57.4573 70.3883 57.4528 70.3953 57.4497C70.4024 57.4467 70.4099 57.4452 70.4175 57.4453C70.4251 57.4455 70.4325 57.4472 70.4393 57.4505C70.446 57.4538 70.4519 57.4585 70.4566 57.4644L73.6752 61.4838C73.6904 61.5029 73.701 61.5253 73.7061 61.5494C73.7112 61.5734 73.7107 61.5984 73.7046 61.6224C72.8739 64.7061 72.0297 67.844 71.172 71.036C71.1673 71.0537 71.1561 71.0607 71.1384 71.057H71.137C71.1239 71.0542 71.1183 71.0463 71.1202 71.0332C71.4301 68.6831 71.739 66.3348 72.047 63.9884C72.0492 63.9716 72.048 63.9546 72.0434 63.9385C72.0388 63.9223 72.031 63.9074 72.0204 63.8946Z" fill="#EA2127"/>
<path d="M43.3218 66.0101C43.4973 68.2622 43.6718 70.4724 43.8454 72.6405C43.8641 72.8692 43.8659 73.1123 43.851 73.3699C43.8463 73.4632 43.8314 73.4646 43.8062 73.3741C43.7726 73.2537 43.7754 73.1095 43.7446 72.9835C43.0773 70.1872 42.4109 67.3914 41.7454 64.5961C41.7342 64.5513 41.7431 64.5112 41.772 64.4757L45.1082 60.3583C45.1418 60.3172 45.1759 60.3168 45.2104 60.3569L46.2492 61.5651C46.2617 61.58 46.2691 61.5986 46.2701 61.6181C46.2711 61.6375 46.2657 61.6568 46.2548 61.6729L43.3638 65.8547C43.3321 65.9014 43.3181 65.9532 43.3218 66.0101Z" fill="#EA2127"/>
<path d="M69.7566 65.8659L66.8726 61.6925C66.839 61.6431 66.8413 61.5959 66.8796 61.5511L67.91 60.3485C67.9153 60.3422 67.9221 60.3371 67.9296 60.3336C67.9372 60.3302 67.9454 60.3285 67.9537 60.3286C67.962 60.3288 67.9702 60.3307 67.9777 60.3344C67.9851 60.3381 67.9916 60.3434 67.9968 60.3499L71.3526 64.4897C71.363 64.5023 71.3703 64.5173 71.374 64.5333C71.3776 64.5493 71.3775 64.5661 71.3736 64.5821C70.6643 67.5473 69.9559 70.5177 69.2484 73.4931C69.2447 73.5081 69.2358 73.5141 69.2218 73.5113H69.2204C69.2092 73.5095 69.2041 73.5034 69.205 73.4931C69.3982 70.9871 69.5947 68.4919 69.7944 66.0073C69.7981 65.956 69.7855 65.9089 69.7566 65.8659Z" fill="#EA2127"/>
<path d="M47.7024 67.4168L50.5794 70.0404C50.7801 70.2233 50.7586 70.2555 50.515 70.137L44.0918 67.0164C44.0835 67.0124 44.076 67.0068 44.07 66.9998C44.064 66.9928 44.0595 66.9846 44.0569 66.9757C44.0542 66.9669 44.0535 66.9576 44.0547 66.9484C44.0559 66.9393 44.059 66.9305 44.0638 66.9226L46.8512 62.2984C46.8839 62.2443 46.9189 62.2424 46.9562 62.2928L48.0552 63.7726C48.086 63.8137 48.0981 63.8594 48.0916 63.9098L47.6436 67.2558C47.6352 67.3202 47.6548 67.3739 47.7024 67.4168Z" fill="#EA2127"/>
<path d="M65.3998 67.4255C65.4257 67.4023 65.4455 67.373 65.4575 67.3403C65.4694 67.3076 65.4732 67.2724 65.4684 67.2379L65.0204 63.9073C65.0139 63.8597 65.0246 63.8173 65.0526 63.7799L66.153 62.2959C66.1931 62.2418 66.2305 62.2432 66.265 62.3001L69.0454 66.9187C69.0505 66.9272 69.0538 66.9366 69.0551 66.9464C69.0563 66.9562 69.0556 66.9661 69.0528 66.9756C69.05 66.985 69.0453 66.9938 69.039 67.0014C69.0327 67.009 69.0248 67.0151 69.016 67.0195L62.5004 70.1849C62.3221 70.2717 62.3063 70.2484 62.4528 70.1149L65.3998 67.4255Z" fill="#EA2127"/>
<path d="M53.0574 69.3448C53.0705 69.3401 53.0831 69.3345 53.0952 69.328C53.112 69.3186 53.1297 69.3135 53.1484 69.3126C53.9492 69.2836 54.7192 69.2472 55.4584 69.2034C56.9844 69.1138 58.5314 69.2566 60.0784 69.3224C60.1232 69.3242 60.1587 69.307 60.1848 69.2706L61.4602 67.5094C61.5386 67.4011 61.5713 67.4137 61.5582 67.5472L61.232 70.8708C61.2299 70.8921 61.2222 70.9126 61.2097 70.9302C61.1972 70.9479 61.1803 70.9621 61.1606 70.9716L56.6246 73.0814C56.5789 73.1028 56.5331 73.1028 56.4874 73.0814L51.9514 70.9702C51.9103 70.9506 51.8879 70.9188 51.8842 70.875L51.5468 67.4716C51.5384 67.3848 51.5599 67.3768 51.6112 67.4478L52.9566 69.3111C52.9675 69.3266 52.9832 69.3382 53.0013 69.3443C53.0194 69.3503 53.039 69.3505 53.0574 69.3448Z" fill="#EA2127"/>
<path d="M44.4443 72.027L44.1433 68.2162C44.1425 68.2064 44.1442 68.1966 44.1485 68.1878C44.1527 68.1789 44.1593 68.1714 44.1674 68.1659C44.1756 68.1605 44.1851 68.1573 44.1949 68.1568C44.2047 68.1563 44.2145 68.1584 44.2231 68.163L47.1925 69.6316C47.2029 69.6368 47.2113 69.6452 47.2166 69.6555C47.2219 69.6658 47.2238 69.6776 47.2219 69.689L46.6087 73.7938C46.6073 73.8035 46.6034 73.8126 46.5972 73.8202C46.5911 73.8278 46.583 73.8337 46.5739 73.8371C46.5647 73.8405 46.5548 73.8415 46.5452 73.8397C46.5356 73.838 46.5266 73.8338 46.5191 73.8274L44.4625 72.0634C44.452 72.0541 44.4455 72.041 44.4443 72.027Z" fill="#EA2127"/>
<path d="M66.5058 73.8066L65.8898 69.6766C65.8886 69.6672 65.8904 69.6577 65.8949 69.6494C65.8994 69.6411 65.9065 69.6345 65.915 69.6304L68.9054 68.1618C68.9125 68.1583 68.9203 68.1568 68.9282 68.1573C68.936 68.1579 68.9436 68.1605 68.9502 68.1649C68.9567 68.1693 68.9619 68.1753 68.9654 68.1824C68.9688 68.1895 68.9704 68.1973 68.9698 68.2052L68.6674 72.0384C68.667 72.0443 68.6654 72.05 68.6628 72.0553C68.6601 72.0606 68.6565 72.0653 68.652 72.0692L66.5786 73.8346C66.5725 73.8396 66.5651 73.843 66.5573 73.8442C66.5495 73.8455 66.5414 73.8447 66.534 73.8418C66.5266 73.839 66.5201 73.8342 66.5152 73.828C66.5102 73.8218 66.507 73.8144 66.5058 73.8066Z" fill="#EA2127"/>
<path d="M47.0906 74.2826L47.8536 70.0182C47.8548 70.0108 47.8577 70.0037 47.8621 69.9977C47.8665 69.9916 47.8723 69.9866 47.879 69.9832C47.8857 69.9798 47.8931 69.978 47.9006 69.978C47.9081 69.978 47.9155 69.9798 47.9222 69.9832L50.34 71.1928C50.3496 71.1976 50.3572 71.2054 50.3618 71.215C50.3664 71.2247 50.3676 71.2356 50.3652 71.246L49.2858 76.097C49.2839 76.1049 49.28 76.1122 49.2745 76.1181C49.269 76.1241 49.262 76.1286 49.2543 76.1311C49.2466 76.1336 49.2384 76.1341 49.2304 76.1326C49.2224 76.131 49.215 76.1274 49.2088 76.1222L47.1074 74.3274C47.1009 74.3221 47.0959 74.3151 47.093 74.3073C47.09 74.2994 47.0892 74.2909 47.0906 74.2826Z" fill="#EA2127"/>
<path d="M63.8262 76.0846L62.7454 71.2434C62.7426 71.2313 62.7439 71.2186 62.7493 71.2074C62.7546 71.1962 62.7636 71.1872 62.7748 71.1818L65.1856 69.996C65.1931 69.9924 65.2014 69.9906 65.2097 69.9907C65.2181 69.9908 65.2263 69.9929 65.2337 69.9967C65.2412 70.0005 65.2476 70.0059 65.2526 70.0126C65.2576 70.0192 65.261 70.027 65.2626 70.0352L66.0214 74.2814C66.0232 74.2908 66.0225 74.3006 66.0193 74.3097C66.0161 74.3188 66.0105 74.3269 66.0032 74.3332L63.9144 76.114C63.9072 76.12 63.8987 76.124 63.8895 76.1257C63.8804 76.1275 63.8709 76.1268 63.8621 76.1239C63.8532 76.121 63.8453 76.1158 63.839 76.1089C63.8327 76.102 63.8283 76.0936 63.8262 76.0846Z" fill="#EA2127"/>
<path d="M49.9004 76.6821L51.1114 71.6295C51.113 71.6227 51.1161 71.6163 51.1205 71.6109C51.1249 71.6054 51.1305 71.6011 51.1368 71.5981C51.1431 71.5951 51.1501 71.5937 51.1571 71.5938C51.1641 71.5939 51.171 71.5955 51.1772 71.5987L54.2236 73.1037C54.2331 73.1085 54.2406 73.1164 54.2449 73.1261C54.2493 73.1358 54.2501 73.1466 54.2474 73.1569L52.678 79.0005C52.676 79.0081 52.672 79.0151 52.6665 79.0208C52.661 79.0265 52.6541 79.0306 52.6465 79.0329C52.6389 79.0351 52.6309 79.0354 52.6231 79.0337C52.6154 79.0319 52.6083 79.0282 52.6024 79.0229L49.9144 76.7283C49.908 76.7226 49.9034 76.7153 49.9009 76.7072C49.8984 76.699 49.8982 76.6903 49.9004 76.6821Z" fill="#EA2127"/>
<path d="M60.4354 79.0022L58.8674 73.1614C58.8646 73.1511 58.8655 73.1403 58.8698 73.1306C58.8742 73.1209 58.8817 73.113 58.8912 73.1082L61.9348 71.5948C61.941 71.5916 61.9479 71.59 61.9549 71.5898C61.9619 71.5897 61.9688 71.5912 61.9752 71.5942C61.9815 71.5972 61.9871 71.6015 61.9915 71.607C61.9959 71.6124 61.999 71.6188 62.0006 71.6256L63.213 76.6796C63.2151 76.6878 63.215 76.6965 63.2125 76.7047C63.21 76.7128 63.2054 76.7201 63.199 76.7258L60.511 79.026C60.505 79.0313 60.4978 79.0349 60.49 79.0366C60.4822 79.0383 60.4741 79.0379 60.4664 79.0355C60.4588 79.0331 60.452 79.0288 60.4465 79.0229C60.4411 79.0171 60.4372 79.01 60.4354 79.0022Z" fill="#EA2127"/>
<path d="M56.5826 74.2505L58.411 73.3349C58.4173 73.3317 58.4243 73.3301 58.4314 73.3301C58.4385 73.3301 58.4455 73.3317 58.4518 73.3348C58.4582 73.3379 58.4637 73.3424 58.4681 73.348C58.4724 73.3536 58.4754 73.3601 58.4768 73.3671L59.8068 79.5971C59.8085 79.6052 59.808 79.6137 59.8053 79.6216C59.8026 79.6295 59.7978 79.6365 59.7914 79.6419L56.5854 82.3803C56.5771 82.3871 56.5667 82.3908 56.556 82.3908C56.5453 82.3908 56.5349 82.3871 56.5266 82.3803L53.3234 79.6391C53.317 79.6337 53.3122 79.6267 53.3095 79.6188C53.3068 79.6109 53.3063 79.6025 53.308 79.5943L54.6338 73.3727C54.6354 73.3659 54.6385 73.3595 54.6429 73.3541C54.6473 73.3486 54.6529 73.3443 54.6592 73.3413C54.6655 73.3383 54.6725 73.3368 54.6795 73.3369C54.6865 73.3371 54.6933 73.3387 54.6996 73.3419L56.5406 74.2505C56.5471 74.2538 56.5543 74.2555 56.5616 74.2555C56.5689 74.2555 56.5761 74.2538 56.5826 74.2505Z" fill="#EA2127"/>
</svg>
