<svg width="32" height="20" viewBox="0 0 32 20" fill="none" xmlns="http://www.w3.org/2000/svg">
<rect x="0.5" y="0.5" width="31" height="19" rx="1.5" fill="white"/>
<rect x="0.5" y="0.5" width="31" height="19" rx="1.5" stroke="#D1D1D1"/>
<path d="M23.2823 7.89151C22.6454 7.89151 22.1358 8.04489 21.7111 8.12158L21.5837 9.00351C21.7961 8.92682 22.3906 8.77344 22.9001 8.73509C23.4097 8.73509 23.707 8.81178 23.622 9.23357C22.0933 9.23357 21.0742 9.50199 20.8618 10.4223C20.5646 11.956 22.433 11.9944 23.1549 11.3042L23.07 11.726H24.4289L25.0234 9.23357C25.2357 8.19827 24.2166 7.85317 23.2823 7.89151ZM23.3673 10.4606C23.2823 10.7674 22.9851 10.8824 22.6454 10.9207C22.3481 10.9207 22.0933 10.7674 22.2632 10.4606C22.433 10.2305 22.8152 10.2305 23.1125 10.2305C23.1974 10.2305 23.3248 10.2305 23.4522 10.2305C23.4097 10.1922 23.3673 10.3456 23.3673 10.4606Z" fill="#32A6CE"/>
<path d="M21.5837 9.00334C21.7961 8.92665 22.3906 8.77327 22.9001 8.73493C23.4097 8.73493 23.707 8.81161 23.622 9.2334C22.0933 9.2334 21.0742 9.50182 20.8618 10.4221C20.5646 11.9559 22.433 11.9942 23.1549 11.304L23.07 11.7258H24.4289L25.0234 9.2334C25.2782 8.1981 24.2166 7.92969 23.2823 7.92969M23.3673 10.4604C23.2823 10.7672 22.9851 10.8822 22.6454 10.9206C22.3481 10.9206 22.0933 10.7672 22.2632 10.4604C22.433 10.2304 22.8152 10.2304 23.1125 10.2304C23.1974 10.2304 23.3248 10.2304 23.4522 10.2304C23.4097 10.192 23.3673 10.3454 23.3673 10.4604Z" fill="#1A80AD"/>
<path d="M26.1705 6.74023L25.0664 11.725H26.4253L27.5718 6.74023H26.1705Z" fill="#32A6CE"/>
<path d="M27.1472 6.74023L25.0664 11.725H26.4253L27.5718 6.74023H26.1705H27.1472Z" fill="#1A80AD"/>
<path d="M19.843 6.74023H17.3376L16.2335 11.725H17.7198L18.102 10.1913H19.1636C20.1827 10.1913 21.032 9.65443 21.2444 8.69581C21.4567 7.58382 20.5649 6.74023 19.843 6.74023ZM19.8006 8.46574C19.7156 8.81084 19.3334 9.04091 18.9513 9.04091H18.2718L18.5691 7.89057H19.291C19.6732 7.89057 19.8855 8.12064 19.8006 8.46574Z" fill="#32A6CE"/>
<path d="M19.8434 6.74023H18.1448L16.1914 11.725H17.6777L18.0599 10.1913H19.1215C20.1406 10.1913 20.9899 9.65443 21.2022 8.69581C21.457 7.58382 20.5653 6.74023 19.8434 6.74023ZM19.8009 8.46574C19.716 8.81084 19.3338 9.04091 18.9516 9.04091H18.2722L18.5694 7.89057H19.2913C19.6735 7.89057 19.8858 8.12064 19.8009 8.46574Z" fill="#1A80AD"/>
<path d="M10.034 7.89151C9.39702 7.89151 8.88745 8.04489 8.50526 8.12158L8.37787 9.00351C8.54773 8.92682 9.1847 8.77344 9.69428 8.73509C10.2039 8.73509 10.5011 8.81178 10.4162 9.23357C8.92991 9.23357 7.91076 9.50199 7.69843 10.4223C7.40118 11.956 9.22716 11.9944 9.94906 11.3042L9.86413 11.726H11.223L11.8175 9.23357C12.0298 8.19827 10.9682 7.85317 10.034 7.89151ZM10.1614 10.4606C10.0765 10.7674 9.77921 10.8824 9.43949 10.9207C9.14223 10.9207 8.88745 10.7674 9.09977 10.4606C9.26963 10.2305 9.65181 10.2305 9.9066 10.2305C10.034 10.2305 10.1189 10.2305 10.2463 10.2305C10.2039 10.1922 10.1614 10.3456 10.1614 10.4606Z" fill="#21789E"/>
<path d="M8.42011 9.00334C8.58996 8.92665 9.22694 8.77327 9.73651 8.73493C10.2461 8.73493 10.5433 8.81161 10.4584 9.2334C8.97215 9.2334 7.95299 9.50182 7.74067 10.4221C7.44342 11.9559 9.2694 11.9942 9.9913 11.304L9.86391 11.7258H11.2228L11.8173 9.2334C12.0721 8.1981 11.0105 7.92969 10.0762 7.92969M10.1612 10.4604C10.0762 10.7672 9.77898 10.8822 9.43926 10.9206C9.14201 10.9206 8.88722 10.7672 9.09954 10.4604C9.2694 10.2304 9.65158 10.2304 9.90637 10.2304C10.0338 10.2304 10.1187 10.2304 10.2461 10.2304C10.2036 10.192 10.1612 10.3454 10.1612 10.4604Z" fill="#1A5B80"/>
<path d="M12.369 7.8916H13.7279L13.9402 10.0389L15.299 7.8916H16.7004L13.4731 13.2599H11.9443L12.921 11.6494L12.369 7.8916Z" fill="#21789E"/>
<path d="M13.7279 7.96829L13.9402 10.0772L15.299 7.8916H16.7004L13.4731 13.2599H11.9443L12.921 11.6877" fill="#1A5B80"/>
<path d="M6.67931 6.74023H4.13143L3.02734 11.725H4.51361L4.89579 10.1913H5.95741C6.97656 10.1913 7.82586 9.65443 8.03818 8.69581C8.29297 7.58382 7.40121 6.74023 6.67931 6.74023ZM6.63685 8.46574C6.55192 8.81084 6.16973 9.04091 5.78755 9.04091H5.10812L5.40537 7.89057H6.12727C6.50945 7.89057 6.72177 8.12064 6.63685 8.46574Z" fill="#21789E"/>
<path d="M6.67931 6.74023H5.53276L3.02734 11.725H4.51361L4.89579 10.1913H5.95741C6.97656 10.1913 7.82586 9.65443 8.03818 8.69581C8.29297 7.58382 7.40121 6.74023 6.67931 6.74023ZM6.63685 8.46574C6.55192 8.81084 6.16973 9.04091 5.78755 9.04091H5.10812L5.40537 7.89057H6.12727C6.50945 7.89057 6.72177 8.12064 6.63685 8.46574Z" fill="#1A5B80"/>
<path d="M9.7792 9.2334C8.63266 9.31009 7.86829 9.61684 7.69843 10.3837C7.40118 11.9175 9.22716 11.9559 9.94906 11.2657L9.86413 11.7258H11.223L11.4353 10.8055L9.7792 9.2334ZM10.1614 10.4604C10.0765 10.7672 9.7792 10.8822 9.43949 10.9206C9.14223 10.9206 8.88745 10.7672 9.09977 10.4604C9.26963 10.2304 9.65181 10.2304 9.9066 10.2304C10.034 10.2304 10.1189 10.2304 10.2463 10.2304C10.2039 10.192 10.1614 10.3454 10.1614 10.4604Z" fill="#06435E"/>
<path d="M14.0252 10.0006L13.9403 10.1156L14.8321 10.8825L16.7005 7.8916H15.2992L14.0252 10.0006Z" fill="#06435E"/>
<path d="M4.51317 11.7262L4.89535 10.1924L3.1543 11.7262H4.51317Z" fill="#06435E"/>
<path d="M17.6775 11.7257L18.0597 10.1152V10.1536L16.3186 11.7257H17.6775Z" fill="#2273AA"/>
<path d="M22.9858 9.2334C21.8393 9.31009 21.0749 9.61684 20.9051 10.3837C20.6078 11.9175 22.4763 11.9559 23.1982 11.2657L23.0708 11.7258H24.4296L24.642 10.8055L22.9858 9.2334ZM23.368 10.4604C23.2831 10.7672 22.9858 10.8822 22.6461 10.9206C22.3489 10.9206 22.0941 10.7672 22.2639 10.4604C22.4338 10.2304 22.816 10.2304 23.1132 10.2304C23.1982 10.2304 23.3255 10.2304 23.4529 10.2304C23.4105 10.192 23.368 10.3454 23.368 10.4604Z" fill="#2273AA"/>
<path d="M26.0433 9.46387L25.0667 11.7262H26.4255L26.8077 10.1924L26.0433 9.46387Z" fill="#2273AA"/>
<path d="M27.8686 7.54515V7.00833H27.6562V6.93164H28.2083V7.00833H27.996V7.54515H27.8686Z" fill="#32A6CE"/>
<path d="M28.293 7.54541V6.9319H28.4204L28.5902 7.35369C28.5902 7.39203 28.6327 7.43038 28.6327 7.43038C28.6327 7.39203 28.6327 7.39203 28.6752 7.31535L28.845 6.89355H28.9724V7.50707H28.8875V6.97024L28.6752 7.50707H28.5478L28.3354 6.97024V7.50707H28.293V7.54541Z" fill="#32A6CE"/>
</svg>
