<svg width="19" height="18" viewBox="0 0 19 18" fill="none" xmlns="http://www.w3.org/2000/svg">
<g clip-path="url(#clip0_0_736)">
<path d="M4.16784 11.9652C5.94322 14.0874 8.0804 15.7584 10.5197 16.9407C11.4484 17.3809 12.6904 17.903 14.0742 17.9925C14.16 17.9963 14.242 18 14.3278 18C15.2565 18 16.0025 17.6792 16.6104 17.0191C16.6142 17.0153 16.6216 17.0079 16.6254 17.0004C16.8417 16.7393 17.0879 16.5044 17.3452 16.2545C17.5205 16.0866 17.6995 15.9113 17.8711 15.7323C18.6656 14.9043 18.6656 13.8525 17.8637 13.0506L15.622 10.809C15.2416 10.4136 14.7866 10.2047 14.3092 10.2047C13.8317 10.2047 13.373 10.4136 12.9813 10.8052L11.6461 12.1405C11.523 12.0696 11.3962 12.0062 11.2768 11.9465C11.1276 11.8719 10.9896 11.8011 10.8666 11.7228C9.65064 10.9507 8.54662 9.94364 7.49109 8.6494C6.95773 7.97431 6.59967 7.40738 6.34977 6.82926C6.70037 6.51223 7.02859 6.18027 7.34563 5.85578C7.45752 5.74016 7.57314 5.62453 7.68877 5.50891C8.09159 5.10609 8.30792 4.63987 8.30792 4.16618C8.30792 3.6925 8.09532 3.22627 7.68877 2.82346L6.57729 1.71198C6.44675 1.58143 6.32366 1.45462 6.19685 1.32408C5.95068 1.07045 5.69333 0.809366 5.4397 0.574389C5.05553 0.197679 4.60423 0 4.12681 0C3.65313 0 3.19809 0.197679 2.799 0.578119L1.40406 1.97306C0.896809 2.48031 0.609614 3.09573 0.549937 3.80812C0.479071 4.69954 0.643182 5.64691 1.06838 6.79196C1.72109 8.56361 2.70576 10.2085 4.16784 11.9652ZM1.46001 3.88645C1.50477 3.39039 1.69498 2.97638 2.05305 2.61832L3.44053 1.23083C3.65686 1.02196 3.89557 0.9138 4.12681 0.9138C4.35433 0.9138 4.58558 1.02196 4.79818 1.23829C5.04807 1.46954 5.28305 1.71198 5.53668 1.96933C5.66349 2.09988 5.79403 2.23042 5.92457 2.36469L7.03605 3.47617C7.2673 3.70742 7.38666 3.9424 7.38666 4.17364C7.38666 4.40489 7.2673 4.63987 7.03605 4.87111C6.92043 4.98674 6.80481 5.10609 6.68918 5.22172C6.34231 5.57232 6.01782 5.90427 5.65976 6.2213C5.6523 6.22876 5.64857 6.23249 5.64111 6.23995C5.33154 6.54952 5.38002 6.84418 5.45462 7.06797C5.45835 7.07915 5.46208 7.08661 5.46581 7.0978C5.753 7.78782 6.15209 8.44426 6.77497 9.22752C7.89391 10.6075 9.07252 11.678 10.3705 12.5023C10.5309 12.6067 10.7024 12.6888 10.8628 12.7708C11.012 12.8454 11.15 12.9163 11.2731 12.9946C11.288 13.0021 11.2992 13.0095 11.3141 13.017C11.4372 13.0804 11.5566 13.1102 11.6759 13.1102C11.9743 13.1102 12.1683 12.92 12.2317 12.8566L13.6266 11.4617C13.8429 11.2453 14.0779 11.1297 14.3092 11.1297C14.5926 11.1297 14.8239 11.305 14.9693 11.4617L17.2184 13.707C17.666 14.1546 17.6622 14.6395 17.2072 15.1131C17.0506 15.281 16.8864 15.4414 16.7111 15.6092C16.4501 15.8628 16.1778 16.1239 15.9316 16.4186C15.5027 16.8811 14.9917 17.0974 14.3315 17.0974C14.2681 17.0974 14.201 17.0937 14.1376 17.0899C12.9142 17.0116 11.7766 16.5342 10.9225 16.1276C8.60257 15.005 6.5661 13.4123 4.8765 11.3908C3.48529 9.71612 2.54911 8.15707 1.92996 6.48612C1.54579 5.46042 1.40033 4.63614 1.46001 3.88645Z" fill="white"/>
</g>
<defs>
<clipPath id="clip0_0_736">
<rect width="18" height="18" fill="white" transform="translate(0.5)"/>
</clipPath>
</defs>
</svg>
