<svg width="21" height="20" viewBox="0 0 21 20" fill="none" xmlns="http://www.w3.org/2000/svg">
<path d="M18.48 5.04C17.88 5.3 17.26 5.48 16.6 5.56C17.28 5.16 17.8 4.52 18.04 3.74C17.4 4.12 16.7 4.38 15.96 4.54C15.36 3.9 14.5 3.5 13.56 3.5C11.74 3.5 10.28 4.98 10.28 6.78C10.28 7.04 10.3 7.28 10.36 7.52C7.63998 7.4 5.23998 6.08 3.61998 4.1C2.45998 6.18 3.75998 7.9 4.61998 8.48C4.09998 8.48 3.57998 8.32 3.13998 8.08C3.13998 9.7 4.27998 11.04 5.75998 11.34C5.43998 11.44 4.71998 11.5 4.27998 11.4C4.69998 12.7 5.91998 13.66 7.33998 13.68C6.21998 14.56 4.57998 15.26 2.47998 15.04C3.93998 15.98 5.65998 16.52 7.51998 16.52C13.56 16.52 16.84 11.52 16.84 7.2C16.84 7.06 16.84 6.92 16.82 6.78C17.5 6.28 18.06 5.7 18.48 5.04Z" fill="white"/>
</svg>
