<svg width="40" height="40" viewBox="0 0 40 40" fill="none" xmlns="http://www.w3.org/2000/svg">
<g clip-path="url(#clip0_0_643)">
<path d="M15.4645 16.8757C15.4645 18.4888 17.0423 19.8012 18.9817 19.8012C21.9551 19.8012 24.374 21.9548 24.374 24.6019C24.374 26.8956 22.5573 28.8177 20.1378 29.2902L20.1804 30.7596C20.1953 31.2772 19.788 31.7088 19.2705 31.7239C19.2612 31.7241 19.252 31.7243 19.2428 31.7243C18.7376 31.7243 18.3209 31.3223 18.3063 30.814L18.2641 29.3587C15.629 29.0452 13.5895 27.0323 13.5895 24.6019C13.5895 24.0841 14.0092 23.6644 14.527 23.6644C15.0447 23.6644 15.4645 24.0841 15.4645 24.6019C15.4645 26.2151 17.0423 27.5275 18.9817 27.5275C20.9212 27.5275 22.499 26.2151 22.499 24.6019C22.499 22.9887 20.9212 21.6762 18.9817 21.6762C16.0084 21.6762 13.5895 19.5227 13.5895 16.8757C13.5895 14.5816 15.4068 12.6592 17.8269 12.1871L17.783 10.7187C17.7676 10.2012 18.1746 9.76922 18.6921 9.75375C19.2095 9.73844 19.6417 10.1453 19.6572 10.6629L19.7006 12.119C22.3352 12.433 24.3741 14.4457 24.3741 16.8757C24.3741 17.3934 23.9544 17.8132 23.4366 17.8132C22.9189 17.8132 22.4991 17.3934 22.4991 16.8757C22.4991 15.2625 20.9213 13.9501 18.9819 13.9501C17.0424 13.9501 15.4645 15.2624 15.4645 16.8757ZM29.9688 11.1391C30.1519 11.3221 30.3917 11.4137 30.6316 11.4137C30.8716 11.4137 31.1115 11.3221 31.2945 11.1391L34.625 7.80859C34.9912 7.44242 34.9912 6.84891 34.625 6.48273C34.2588 6.11664 33.6654 6.11664 33.2991 6.48273L30.6316 9.15031L29.6375 8.15617C29.2712 7.79008 28.6779 7.79008 28.3116 8.15617C27.9455 8.52234 27.9455 9.11586 28.3116 9.48203L29.9688 11.1391ZM36.777 15.0802C37.3566 16.9042 37.6511 18.8042 37.6511 20.7387C37.6511 25.7255 35.7091 30.4137 32.183 33.94C28.6568 37.4662 23.9685 39.408 18.9818 39.408C13.9951 39.408 9.3068 37.4662 5.78055 33.94C2.25437 30.4137 0.3125 25.7255 0.3125 20.7387C0.3125 15.752 2.25437 11.0637 5.78055 7.5375C9.3068 4.01141 13.9951 2.06945 18.9818 2.06945C21.2102 2.06945 23.382 2.45758 25.4484 3.22148C26.9503 1.605 29.093 0.591797 31.4684 0.591797C36.0004 0.591797 39.6875 4.27891 39.6875 8.81094C39.6875 11.321 38.5561 13.5714 36.777 15.0802ZM25.1242 8.81094C25.1242 12.3091 27.9702 15.155 31.4684 15.155C34.9665 15.155 37.8125 12.3091 37.8125 8.81094C37.8125 5.31273 34.9665 2.4668 31.4684 2.4668C27.9702 2.4668 25.1242 5.31281 25.1242 8.81094ZM35.1442 16.1607C34.0374 16.7165 32.7889 17.03 31.4684 17.03C26.9363 17.03 23.2492 13.343 23.2492 8.81094C23.2492 7.35641 23.6295 5.98914 24.2952 4.80266C22.5888 4.2332 20.8067 3.94445 18.9818 3.94445C9.72141 3.94445 2.1875 11.4784 2.1875 20.7387C2.1875 29.9991 9.72141 37.533 18.9818 37.533C28.2422 37.533 35.7761 29.9991 35.7761 20.7387C35.7761 19.1783 35.5635 17.6433 35.1442 16.1607Z" fill="white"/>
</g>
<defs>
<clipPath id="clip0_0_643">
<rect width="40" height="40" fill="white"/>
</clipPath>
</defs>
</svg>
