<svg width="802" height="885" viewBox="0 0 802 885" fill="none" xmlns="http://www.w3.org/2000/svg">
<g opacity="0.02">
<path d="M354.881 23.5307C461.278 27.1536 560.893 69.3329 638.202 142.499C642.886 146.928 647.431 151.323 651.838 155.682C652.247 156.091 652.478 156.585 652.532 157.164C653.751 170.174 654.878 183.119 655.912 195.998C658.891 232.976 660.129 270.016 659.627 307.118C658.968 355.178 654.28 404.209 643.411 451.169C632.708 497.392 616.129 539.317 593.673 576.943C575.13 608.01 553.682 636.238 529.328 661.626C515.824 675.701 502.813 688.302 490.297 699.43C462.525 724.1 437.553 744.487 415.383 760.592C390.111 778.95 364.92 797.319 339.81 815.701C339.713 815.772 339.595 815.811 339.475 815.811C339.354 815.811 339.236 815.772 339.139 815.701C316.19 798.94 293.097 782.11 269.863 765.21C244.328 746.636 219.461 726.681 195.262 705.344C175.522 687.936 158.114 671.025 143.035 654.611C122.609 632.364 104.325 608.095 88.1813 581.805C67.6164 548.299 51.8474 511.733 40.8743 472.108C28.9405 429.049 22.6668 384.08 20.4328 339.412C18.766 306.069 18.7467 272.582 20.375 238.953C21.6636 212.408 23.6777 185.179 26.4171 157.268C26.4711 156.728 26.6872 156.265 27.0653 155.879C70.0471 111.971 118.712 78.7434 173.061 56.1953C230.774 32.2582 291.38 21.37 354.881 23.5307ZM608.755 417.648C615.388 380.342 618.594 342.387 618.883 304.815C618.883 304.028 619.15 303.241 619.15 302.396C619.312 259.985 617.356 217.732 613.281 175.638C613.244 175.25 613.068 174.888 612.783 174.619C553.624 117.497 478.676 80.0861 397.315 68.1291C361.263 62.8355 324.477 62.5731 286.959 67.342C279.126 68.3375 271.456 69.5837 263.948 71.0808C188.641 86.0897 122.725 120.545 66.2004 174.446C65.8686 174.77 65.6795 175.163 65.6332 175.626C62.6083 207.905 60.7447 239.173 60.0425 269.43C59.7492 282.108 59.8071 297.225 60.2161 314.781C61.0958 352.978 64.7381 388.992 71.1429 422.822C74.9935 443.124 80.0827 462.806 86.4103 481.866C106.308 541.824 141.982 596.713 187.124 641.74C225.796 680.308 268.485 714.523 313.408 746.528C321.719 752.447 330.222 758.616 338.919 765.037C339.258 765.291 339.602 765.291 339.949 765.037C355.29 753.94 370.388 742.979 385.242 732.152C427.248 701.525 467.945 667.205 503.793 629.32C508.925 623.895 514.026 618.104 519.095 611.946C544.653 580.913 566.125 547.404 581.496 511C593.773 481.924 602.86 450.806 608.755 417.648Z" fill="white"/>
<path d="M339.799 171.934L354.928 139.281C355.136 138.841 355.26 138.864 355.298 139.35C355.491 141.974 355.545 144.887 355.46 148.09C354.365 189.976 353.385 230.627 352.52 270.044C352.513 270.484 352.381 270.881 352.127 271.236L339.846 288.517C339.806 288.576 339.753 288.624 339.69 288.657C339.628 288.69 339.558 288.707 339.486 288.707C339.414 288.707 339.344 288.69 339.279 288.657C339.215 288.624 339.159 288.576 339.116 288.517L327.009 271.572C326.632 271.044 326.423 270.414 326.407 269.766L323.386 140.091C323.355 138.586 323.656 138.517 324.289 139.883L339.14 171.934C339.167 171.999 339.213 172.054 339.272 172.092C339.331 172.131 339.399 172.152 339.47 172.152C339.54 172.152 339.608 172.131 339.667 172.092C339.726 172.054 339.772 171.999 339.799 171.934Z" fill="white"/>
<path d="M318.189 267.798L283.221 166.494C283.155 166.301 283.163 166.091 283.242 165.905C283.321 165.719 283.466 165.57 283.649 165.487L316.73 150.358C317.818 149.864 318.362 150.215 318.362 151.411L318.64 267.729C318.64 268.662 318.49 268.685 318.189 267.798Z" fill="white"/>
<path d="M395.788 166.274L361.063 266.895C360.67 268.045 360.469 268.01 360.461 266.791C360.292 228.3 360.384 189.493 360.739 150.37C360.747 149.922 360.951 149.791 361.353 149.976L395.499 165.579C395.808 165.718 395.904 165.95 395.788 166.274Z" fill="white"/>
<path d="M420.048 177.061L367.347 276.224C367.33 276.259 367.299 276.286 367.263 276.299C367.226 276.312 367.186 276.31 367.15 276.294L367.035 276.236C367 276.221 366.973 276.193 366.958 276.159C366.943 276.125 366.942 276.086 366.954 276.051L401.053 169.075C401.06 169.055 401.07 169.038 401.084 169.022C401.097 169.007 401.114 168.995 401.132 168.986C401.15 168.978 401.17 168.973 401.191 168.972C401.211 168.971 401.231 168.975 401.25 168.982L419.979 176.841C419.999 176.85 420.017 176.863 420.032 176.879C420.047 176.895 420.058 176.914 420.065 176.935C420.071 176.956 420.073 176.978 420.07 177C420.067 177.022 420.06 177.043 420.048 177.061Z" fill="white"/>
<path d="M259.433 176.645L277.386 169.098C277.444 169.075 277.505 169.064 277.567 169.066C277.629 169.068 277.69 169.083 277.747 169.11C277.803 169.137 277.854 169.176 277.895 169.224C277.937 169.271 277.968 169.327 277.988 169.387L311.996 276.12C312.011 276.17 312.008 276.223 311.986 276.271C311.965 276.318 311.926 276.355 311.878 276.375C311.831 276.396 311.777 276.397 311.728 276.38C311.679 276.363 311.638 276.328 311.614 276.282L259.121 177.501C258.913 177.1 259.017 176.814 259.433 176.645Z" fill="white"/>
<path d="M252.626 179.77L304.853 280.808C305.262 281.603 305.142 281.692 304.494 281.074C301.307 278.034 297.931 274.673 294.366 270.993C268.677 244.416 241.943 216.914 214.163 188.486C214.107 188.432 214.068 188.364 214.049 188.29C214.03 188.215 214.032 188.136 214.055 188.062C214.077 187.987 214.119 187.92 214.177 187.866C214.235 187.812 214.306 187.775 214.383 187.757L251.77 179.365C252.156 179.28 252.441 179.415 252.626 179.77Z" fill="white"/>
<path d="M374.282 280.438L426.323 179.758C426.501 179.411 426.779 179.28 427.157 179.365L464.498 187.733C464.577 187.751 464.651 187.789 464.71 187.845C464.77 187.901 464.813 187.971 464.836 188.05C464.858 188.128 464.859 188.211 464.838 188.29C464.818 188.369 464.776 188.44 464.718 188.497L374.849 280.854C373.738 281.989 373.549 281.85 374.282 280.438Z" fill="white"/>
<path d="M295.916 284.003L188.13 217.342C188.081 217.311 188.038 217.269 188.006 217.221C187.973 217.173 187.95 217.118 187.939 217.06C187.929 217.003 187.93 216.944 187.943 216.887C187.955 216.83 187.98 216.776 188.014 216.729L206.361 191.53C206.631 191.159 206.928 191.14 207.252 191.472L296.31 283.516C297.475 284.72 297.344 284.882 295.916 284.003Z" fill="white"/>
<path d="M490.622 217.458L383.692 283.586C381.801 284.751 381.627 284.535 383.171 282.938L471.708 191.472C472.017 191.148 472.306 191.167 472.576 191.53L490.749 216.532C491.034 216.918 490.992 217.227 490.622 217.458Z" fill="white"/>
<path d="M186.939 245.643L175.931 268.944C175.887 269.037 175.866 269.139 175.868 269.244C175.87 269.348 175.895 269.451 175.942 269.546L191.858 301.388C192.576 302.824 192.333 303.013 191.129 301.956L157.723 272.59C157.637 272.51 157.579 272.404 157.558 272.287C157.537 272.17 157.555 272.049 157.608 271.942L181.961 225.26C182.193 224.804 182.529 224.704 182.968 224.959C211.836 241.403 240.708 257.836 269.584 274.257C269.7 274.326 269.731 274.422 269.677 274.546V274.558C269.623 274.666 269.538 274.7 269.422 274.662C242.738 264.977 215.633 255.146 188.108 245.169C187.575 244.976 187.186 245.134 186.939 245.643Z" fill="white"/>
<path d="M491.072 245.053C463.91 254.938 436.681 264.815 409.388 274.685C409.287 274.724 409.214 274.697 409.168 274.604V274.592C409.106 274.461 409.137 274.357 409.26 274.28C438.321 257.774 467.34 241.264 496.316 224.75C496.355 224.728 496.398 224.714 496.443 224.709C496.488 224.704 496.534 224.709 496.577 224.721C496.62 224.734 496.66 224.756 496.695 224.785C496.73 224.814 496.758 224.849 496.779 224.889L521.248 271.803C521.328 271.948 521.355 272.116 521.326 272.28C521.296 272.444 521.212 272.594 521.086 272.706L487.669 302.071C486.651 302.967 486.446 302.808 487.056 301.597L502.937 269.812C503.099 269.503 503.103 269.191 502.948 268.874L491.894 245.389C491.717 245.034 491.443 244.922 491.072 245.053Z" fill="white"/>
<path d="M254.364 276.977C254.403 276.954 254.434 276.961 254.457 277L254.642 277.289C254.681 277.359 254.669 277.417 254.607 277.463L109.873 379.207C108.863 379.925 108.681 379.755 109.329 378.698C115.541 368.62 121.649 358.662 127.653 348.823C128.81 346.936 130.57 346.08 132.422 345.049C173.181 322.532 213.829 299.841 254.364 276.977Z" fill="white"/>
<path d="M430.836 280.623C470.792 302.955 510.394 325.04 549.641 346.878C550.058 347.106 550.406 347.437 550.648 347.839L569.597 378.698C570.245 379.755 570.06 379.929 569.041 379.219C521.013 345.435 472.768 311.513 424.307 277.451C424.222 277.397 424.207 277.328 424.261 277.243V277.232C424.323 277.139 424.4 277.12 424.492 277.174C426.599 278.285 428.713 279.435 430.836 280.623Z" fill="white"/>
<path d="M100.914 393.85C156.559 355.505 211.748 317.42 266.483 279.593C266.622 279.5 266.741 279.519 266.841 279.651H266.853C266.922 279.751 266.915 279.84 266.83 279.917C216.71 325.839 166.61 371.734 116.528 417.602C116.495 417.633 116.455 417.656 116.412 417.67C116.369 417.684 116.323 417.688 116.278 417.683C116.233 417.677 116.189 417.662 116.15 417.638C116.112 417.614 116.079 417.582 116.054 417.544L100.705 394.961C100.405 394.521 100.474 394.151 100.914 393.85Z" fill="white"/>
<path d="M578.302 394.822L563.185 417.115C562.845 417.617 562.456 417.663 562.016 417.254C512.004 371.425 462.089 325.7 412.27 280.079C412.178 279.994 412.174 279.898 412.259 279.79V279.778C412.343 279.67 412.444 279.658 412.56 279.743C467.772 317.833 522.966 355.895 578.14 393.931C578.495 394.17 578.549 394.467 578.302 394.822Z" fill="white"/>
<path d="M137.539 428.563C149.183 450.37 160.774 472.154 172.31 493.915C172.356 494.008 172.337 494.081 172.252 494.135L172.241 494.147C172.109 494.232 171.994 494.209 171.893 494.077C154.654 470.557 137.334 446.967 119.933 423.308C119.822 423.16 119.77 422.975 119.787 422.79C119.804 422.604 119.889 422.43 120.026 422.301C172.345 375.275 224.668 328.231 276.994 281.167C277.095 281.082 277.191 281.086 277.284 281.178V281.19C277.376 281.283 277.376 281.375 277.284 281.468C230.721 330.137 184.194 378.756 137.701 427.324C137.346 427.695 137.292 428.108 137.539 428.563Z" fill="white"/>
<path d="M541.423 427.544C494.915 378.922 448.321 330.237 401.643 281.491C401.551 281.398 401.551 281.306 401.643 281.213L401.655 281.202C401.747 281.101 401.844 281.098 401.944 281.19C454.317 328.27 506.605 375.283 558.809 422.232C558.973 422.381 559.078 422.586 559.101 422.806C559.125 423.026 559.066 423.246 558.936 423.424L506.976 494.101C506.906 494.186 506.829 494.201 506.744 494.147L506.467 493.973C506.443 493.958 506.439 493.939 506.455 493.916C518.177 472.224 529.867 450.347 541.527 428.285C541.588 428.166 541.611 428.031 541.593 427.898C541.574 427.766 541.515 427.642 541.423 427.544Z" fill="white"/>
<path d="M154.495 306.204L165.201 287.927C165.227 287.881 165.263 287.842 165.305 287.81C165.347 287.779 165.395 287.757 165.446 287.745C165.497 287.733 165.55 287.732 165.601 287.741C165.653 287.75 165.702 287.77 165.745 287.799L184.578 300.868C184.642 300.91 184.691 300.971 184.72 301.042C184.748 301.113 184.755 301.191 184.739 301.266C184.723 301.341 184.684 301.409 184.629 301.462C184.573 301.515 184.503 301.55 184.427 301.562L154.888 306.782C154.815 306.796 154.74 306.788 154.671 306.76C154.603 306.731 154.544 306.683 154.502 306.622C154.46 306.56 154.437 306.488 154.436 306.414C154.435 306.34 154.455 306.267 154.495 306.204Z" fill="white"/>
<path d="M494.441 300.844L513.123 287.799C513.168 287.768 513.22 287.746 513.275 287.735C513.329 287.725 513.385 287.725 513.44 287.737C513.494 287.749 513.545 287.772 513.59 287.805C513.635 287.837 513.673 287.879 513.701 287.927L524.455 306.192C524.493 306.259 524.511 306.334 524.508 306.411C524.505 306.488 524.48 306.562 524.437 306.625C524.393 306.688 524.332 306.737 524.262 306.767C524.191 306.797 524.114 306.806 524.038 306.794L494.603 301.574C494.524 301.559 494.452 301.522 494.394 301.467C494.337 301.412 494.297 301.341 494.279 301.263C494.262 301.185 494.268 301.104 494.297 301.029C494.326 300.955 494.376 300.891 494.441 300.844Z" fill="white"/>
<path d="M136.889 333.856L148.95 314.237C149.189 313.851 149.529 313.612 149.968 313.519L192.495 304.363C194.085 304.016 194.162 304.224 192.726 304.988L137.329 334.331C136.611 334.709 136.464 334.551 136.889 333.856Z" fill="white"/>
<path d="M541.482 334.273L486.582 305.174C484.892 304.279 484.981 304.035 486.848 304.444L529.248 313.577C529.493 313.637 529.705 313.791 529.838 314.005L541.992 333.741C542.478 334.536 542.308 334.713 541.482 334.273Z" fill="white"/>
<path d="M257.084 358.071L243.68 334.551C243.645 334.489 243.629 334.419 243.633 334.349C243.638 334.278 243.662 334.211 243.703 334.154C243.744 334.096 243.801 334.052 243.867 334.026C243.932 334 244.004 333.994 244.073 334.007L286.102 341.878C286.184 341.896 286.257 341.94 286.31 342.005L310.676 370.746C310.712 370.789 310.738 370.839 310.752 370.893C310.766 370.947 310.768 371.004 310.757 371.058L305.27 398.028C305.251 398.108 305.206 398.18 305.142 398.231C305.078 398.283 304.998 398.311 304.916 398.313C304.834 398.314 304.753 398.288 304.687 398.238C304.622 398.189 304.574 398.119 304.553 398.04L296.994 365.364C296.979 365.291 296.942 365.224 296.888 365.172C296.835 365.121 296.767 365.087 296.693 365.074L257.338 358.257C257.285 358.246 257.234 358.224 257.19 358.192C257.146 358.16 257.11 358.119 257.084 358.071Z" fill="white"/>
<path d="M381.897 365.769C379.489 375.947 377.144 385.909 374.859 395.655C374.666 396.473 374.578 397.307 374.593 398.155C374.601 398.611 374.439 398.68 374.107 398.364C373.821 398.101 373.64 397.777 373.563 397.391C371.78 388.656 370.002 380.037 368.227 371.533C368.142 371.139 368.231 370.784 368.493 370.468L392.361 342.306C392.6 342.028 392.893 341.858 393.24 341.797L434.91 334.007C434.974 333.993 435.04 333.999 435.101 334.022C435.161 334.046 435.214 334.086 435.252 334.139C435.29 334.192 435.312 334.254 435.315 334.319C435.318 334.384 435.302 334.448 435.269 334.504L422.109 357.631C421.885 358.033 421.549 358.272 421.101 358.349L382.73 364.981C382.283 365.059 382.005 365.321 381.897 365.769Z" fill="white"/>
<path d="M455.316 386.118L453.302 342.538C453.294 342.26 453.402 342.202 453.626 342.364C453.726 342.434 453.795 342.526 453.834 342.642C459.213 360.537 464.552 378.081 469.854 395.273C469.954 395.613 469.889 395.914 469.657 396.176L411.169 464.423C411.119 464.483 411.055 464.53 410.981 464.558C410.908 464.585 410.828 464.593 410.75 464.58C410.672 464.568 410.598 464.534 410.535 464.484C410.473 464.434 410.424 464.369 410.393 464.295L402.939 445.659C402.792 445.289 402.854 444.95 403.124 444.641L454.934 387.183C455.211 386.882 455.339 386.527 455.316 386.118Z" fill="white"/>
<path d="M224.141 387.345L275.881 444.733C276.112 444.996 276.147 445.281 275.985 445.59L265.625 465.291C265.363 465.784 265.054 465.812 264.699 465.372L209.371 396.338C209.093 395.991 209.02 395.605 209.151 395.181L224.523 344.668C225.31 342.067 225.641 342.125 225.518 344.841L223.631 385.921C223.608 386.469 223.778 386.943 224.141 387.345Z" fill="white"/>
<path d="M161.323 441.713C170.776 466.769 180.248 491.863 189.74 516.996C189.778 517.104 189.743 517.182 189.635 517.228C189.504 517.29 189.408 517.255 189.346 517.124C175.456 488.58 161.373 459.712 147.097 430.519C146.935 430.18 146.985 429.871 147.248 429.593L209.22 364.253C209.838 363.604 210.007 363.705 209.73 364.554C206.288 375.118 202.923 385.647 199.636 396.142C199.073 397.917 198.155 399.522 196.881 400.957C185.013 414.276 173.21 427.591 161.473 440.902C161.265 441.141 161.215 441.412 161.323 441.713Z" fill="white"/>
<path d="M517.267 440.682C505.414 427.255 493.603 413.921 481.835 400.679C480.747 399.452 479.933 397.993 479.393 396.304C475.905 385.384 472.514 374.805 469.219 364.565C468.941 363.716 469.111 363.616 469.728 364.264L531.423 429.304C531.847 429.759 531.924 430.268 531.654 430.832C519.385 456.004 507.092 481.249 494.776 506.567C493.048 510.14 491.52 513.153 490.193 515.607C489.143 517.559 489.012 517.498 489.799 515.422L517.51 441.967C517.687 441.488 517.606 441.06 517.267 440.682Z" fill="white"/>
<path d="M189.612 464.133C189.388 464.395 189.315 464.696 189.392 465.036C195.303 489.382 201.098 513.527 206.778 537.472C206.801 537.572 206.766 537.638 206.673 537.669H206.662C206.531 537.707 206.438 537.661 206.384 537.53C193.976 506.239 181.606 475.148 169.275 444.259C169.004 443.58 169.113 442.97 169.599 442.43L203.386 405.274C203.733 404.888 204.061 404.904 204.37 405.32L221.142 427.903C221.214 428.002 221.25 428.123 221.244 428.245C221.238 428.367 221.19 428.484 221.107 428.574L189.612 464.133Z" fill="white"/>
<path d="M457.585 428.146L474.925 404.869C474.937 404.852 474.953 404.837 474.971 404.827C474.99 404.816 475.011 404.81 475.032 404.809C475.053 404.808 475.074 404.812 475.094 404.82C475.113 404.829 475.131 404.841 475.145 404.858L509.997 443.136C510.015 443.156 510.027 443.181 510.031 443.208C510.035 443.235 510.031 443.262 510.02 443.287L472.54 537.449C472.527 537.482 472.502 537.509 472.47 537.524C472.437 537.539 472.4 537.542 472.367 537.53L472.251 537.495C472.22 537.483 472.195 537.459 472.18 537.429C472.165 537.4 472.162 537.366 472.17 537.333L489.637 464.55C489.642 464.527 489.641 464.504 489.635 464.482C489.629 464.46 489.618 464.439 489.602 464.422L457.585 428.32C457.566 428.295 457.555 428.265 457.555 428.233C457.555 428.202 457.566 428.171 457.585 428.146Z" fill="white"/>
<path d="M339.08 478.717L327.031 505.722C326.923 505.963 326.761 506.176 326.556 506.344C326.351 506.513 326.109 506.633 325.85 506.694L297.908 513.338C297.507 513.438 297.213 513.3 297.028 512.921L289.539 497.7C289.362 497.322 289.477 497.098 289.886 497.029L314.738 492.526C315.386 492.411 315.98 492.171 316.52 491.809L338.362 477.236C338.403 477.209 338.437 477.174 338.464 477.134C338.49 477.094 338.509 477.048 338.517 477.001C338.526 476.953 338.525 476.904 338.514 476.857C338.504 476.81 338.483 476.766 338.455 476.726L324.982 458.531C324.55 457.952 324.002 457.524 323.338 457.246L305.733 449.884C305.3 449.699 305.05 449.375 304.98 448.912L302.445 432.464C302.368 431.954 302.584 431.731 303.093 431.792L330.41 435.056C330.873 435.11 331.24 435.327 331.51 435.705L339.069 446.388C339.115 446.453 339.175 446.505 339.246 446.542C339.316 446.578 339.394 446.597 339.474 446.597C339.553 446.597 339.631 446.578 339.702 446.542C339.772 446.505 339.833 446.453 339.879 446.388L347.426 435.693C347.68 435.33 348.028 435.122 348.467 435.068L376.028 431.769C376.096 431.759 376.166 431.765 376.232 431.787C376.298 431.81 376.358 431.847 376.406 431.897C376.455 431.947 376.491 432.007 376.512 432.073C376.532 432.14 376.537 432.21 376.525 432.278L373.967 448.9C373.89 449.371 373.632 449.699 373.192 449.884L355.204 457.408C354.811 457.57 354.49 457.821 354.243 458.16L340.492 476.703C340.464 476.742 340.444 476.785 340.434 476.831C340.423 476.878 340.422 476.926 340.431 476.972C340.44 477.019 340.458 477.063 340.484 477.103C340.511 477.142 340.545 477.175 340.585 477.201C347.105 481.515 354.02 486.141 361.327 491.079C362.639 491.967 364.078 492.549 365.645 492.827C373.477 494.209 381.244 495.594 388.945 496.983C389.408 497.068 389.536 497.318 389.327 497.735L381.896 513.026C381.742 513.342 381.495 513.462 381.155 513.384L353.225 506.729C352.926 506.657 352.647 506.517 352.41 506.32C352.173 506.124 351.985 505.875 351.859 505.594L339.844 478.717C339.589 478.146 339.335 478.146 339.08 478.717Z" fill="white"/>
<path d="M211.444 488.359C213.99 507.782 216.545 527.201 219.107 546.616C219.122 546.724 219.076 546.79 218.968 546.813H218.956C218.848 546.836 218.779 546.794 218.748 546.686C211.71 520.572 204.696 494.498 197.704 468.462C197.596 468.045 197.677 467.663 197.948 467.316L224.327 434.362C224.674 433.922 225.037 433.91 225.415 434.327L240.601 451.007C240.707 451.123 240.767 451.272 240.772 451.428C240.776 451.583 240.724 451.734 240.625 451.852L211.826 487.028C211.502 487.414 211.375 487.858 211.444 488.359Z" fill="white"/>
<path d="M467.321 487.271L438.348 451.91C438.086 451.586 438.094 451.269 438.372 450.961L453.732 434.096C453.775 434.049 453.827 434.012 453.885 433.986C453.943 433.961 454.006 433.949 454.068 433.95C454.131 433.951 454.192 433.966 454.248 433.993C454.304 434.02 454.353 434.059 454.391 434.107L481.002 467.339C481.128 467.497 481.215 467.683 481.258 467.881C481.3 468.08 481.296 468.287 481.245 468.485C474.378 493.981 467.398 519.925 460.306 546.316C460.268 546.462 460.175 546.52 460.028 546.489H460.017C459.909 546.466 459.863 546.4 459.878 546.292C462.44 526.862 464.994 507.447 467.541 488.047C467.559 487.908 467.549 487.768 467.511 487.634C467.473 487.501 467.408 487.377 467.321 487.271Z" fill="white"/>
<path d="M230.045 504.761C231.495 523.382 232.938 541.655 234.374 559.58C234.528 561.471 234.543 563.481 234.42 565.611C234.381 566.383 234.258 566.394 234.049 565.646C233.772 564.65 233.795 563.458 233.54 562.416C228.023 539.297 222.513 516.182 217.011 493.07C216.918 492.7 216.992 492.368 217.231 492.075L244.814 458.033C245.092 457.693 245.374 457.69 245.659 458.021L254.248 468.011C254.351 468.134 254.412 468.288 254.42 468.448C254.429 468.609 254.384 468.768 254.294 468.902L230.392 503.476C230.129 503.862 230.014 504.29 230.045 504.761Z" fill="white"/>
<path d="M448.604 503.569L424.759 469.064C424.481 468.655 424.501 468.265 424.817 467.895L433.336 457.952C433.381 457.899 433.436 457.857 433.499 457.829C433.561 457.8 433.629 457.786 433.698 457.787C433.767 457.788 433.834 457.805 433.896 457.835C433.957 457.866 434.011 457.91 434.054 457.964L461.799 492.191C461.885 492.295 461.946 492.418 461.976 492.551C462.006 492.684 462.005 492.822 461.973 492.955C456.108 517.471 450.251 542.029 444.402 566.63C444.371 566.753 444.298 566.803 444.182 566.78H444.17C444.078 566.765 444.035 566.715 444.043 566.63C445.641 545.91 447.265 525.28 448.916 504.738C448.947 504.314 448.843 503.924 448.604 503.569Z" fill="white"/>
<path d="M266.262 516.394L290.048 538.086C291.707 539.598 291.53 539.864 289.516 538.884L236.41 513.084C236.341 513.051 236.279 513.004 236.23 512.946C236.18 512.888 236.143 512.821 236.121 512.748C236.099 512.674 236.093 512.597 236.103 512.522C236.113 512.446 236.139 512.373 236.178 512.308L259.224 474.076C259.494 473.628 259.784 473.613 260.092 474.03L269.179 486.264C269.433 486.604 269.534 486.982 269.48 487.399L265.776 515.063C265.706 515.595 265.868 516.039 266.262 516.394Z" fill="white"/>
<path d="M412.584 516.464C412.798 516.271 412.962 516.029 413.061 515.759C413.16 515.488 413.191 515.198 413.151 514.913L409.447 487.376C409.393 486.982 409.482 486.631 409.713 486.322L418.811 474.053C419.143 473.605 419.452 473.617 419.737 474.088L442.725 512.273C442.767 512.343 442.794 512.421 442.805 512.502C442.815 512.583 442.809 512.665 442.786 512.743C442.763 512.822 442.724 512.894 442.672 512.957C442.62 513.02 442.555 513.071 442.482 513.107L388.612 539.278C387.138 539.996 387.007 539.803 388.218 538.699L412.584 516.464Z" fill="white"/>
<path d="M310.537 532.333C310.645 532.294 310.749 532.248 310.85 532.194C310.988 532.117 311.135 532.074 311.289 532.067C317.91 531.828 324.277 531.527 330.388 531.164C343.005 530.423 355.795 531.604 368.586 532.148C368.956 532.163 369.249 532.02 369.465 531.72L380.01 517.158C380.658 516.263 380.929 516.367 380.82 517.471L378.123 544.95C378.106 545.126 378.043 545.295 377.939 545.441C377.836 545.587 377.696 545.705 377.533 545.783L340.03 563.227C339.652 563.404 339.274 563.404 338.896 563.227L301.393 545.772C301.053 545.609 300.868 545.347 300.837 544.984L298.048 516.846C297.978 516.128 298.156 516.062 298.58 516.649L309.704 532.055C309.794 532.183 309.923 532.279 310.073 532.329C310.223 532.379 310.385 532.38 310.537 532.333Z" fill="white"/>
<path d="M239.327 554.51L236.838 523.003C236.831 522.923 236.846 522.841 236.881 522.768C236.916 522.695 236.97 522.632 237.037 522.587C237.105 522.542 237.183 522.516 237.264 522.512C237.345 522.508 237.426 522.526 237.498 522.563L262.048 534.706C262.134 534.749 262.204 534.818 262.248 534.903C262.291 534.989 262.307 535.086 262.292 535.18L257.222 569.118C257.21 569.198 257.177 569.274 257.127 569.337C257.076 569.4 257.009 569.448 256.933 569.476C256.858 569.504 256.776 569.512 256.696 569.498C256.617 569.484 256.542 569.449 256.481 569.396L239.477 554.811C239.39 554.734 239.336 554.626 239.327 554.51Z" fill="white"/>
<path d="M421.728 569.223L416.635 535.076C416.625 534.999 416.64 534.92 416.677 534.852C416.714 534.783 416.773 534.728 416.843 534.694L441.567 522.552C441.626 522.524 441.691 522.511 441.756 522.515C441.821 522.52 441.883 522.541 441.937 522.578C441.991 522.614 442.035 522.664 442.063 522.723C442.092 522.781 442.104 522.846 442.1 522.911L439.6 554.603C439.596 554.652 439.583 554.7 439.561 554.743C439.54 554.787 439.509 554.826 439.472 554.858L422.33 569.454C422.279 569.496 422.218 569.523 422.154 569.534C422.089 569.544 422.023 569.537 421.961 569.514C421.9 569.49 421.846 569.451 421.805 569.4C421.764 569.349 421.738 569.287 421.728 569.223Z" fill="white"/>
<path d="M261.205 573.158L267.514 537.9C267.523 537.839 267.547 537.781 267.584 537.731C267.62 537.68 267.668 537.639 267.724 537.611C267.779 537.583 267.84 537.568 267.902 537.568C267.964 537.568 268.026 537.583 268.081 537.611L288.071 547.612C288.15 547.651 288.213 547.716 288.251 547.796C288.289 547.875 288.299 547.966 288.279 548.052L279.355 588.159C279.339 588.224 279.307 588.284 279.262 588.334C279.216 588.383 279.159 588.42 279.095 588.441C279.031 588.462 278.963 588.466 278.897 588.453C278.831 588.44 278.77 588.411 278.718 588.367L261.344 573.528C261.29 573.484 261.249 573.427 261.225 573.362C261.2 573.297 261.194 573.226 261.205 573.158Z" fill="white"/>
<path d="M399.571 588.055L390.636 548.029C390.612 547.929 390.624 547.824 390.668 547.732C390.712 547.639 390.786 547.564 390.879 547.52L410.811 537.716C410.873 537.686 410.941 537.671 411.01 537.672C411.079 537.673 411.147 537.69 411.209 537.721C411.27 537.753 411.324 537.798 411.365 537.853C411.406 537.908 411.435 537.972 411.447 538.04L417.721 573.147C417.736 573.225 417.73 573.306 417.704 573.381C417.677 573.456 417.631 573.523 417.571 573.575L400.301 588.298C400.242 588.348 400.171 588.381 400.095 588.396C400.019 588.41 399.941 588.405 399.868 588.38C399.795 588.356 399.73 588.313 399.678 588.257C399.626 588.2 399.589 588.13 399.571 588.055Z" fill="white"/>
<path d="M284.435 592.998L294.447 551.224C294.46 551.167 294.486 551.115 294.523 551.07C294.559 551.025 294.605 550.989 294.657 550.964C294.71 550.939 294.767 550.927 294.825 550.928C294.883 550.929 294.94 550.943 294.991 550.969L320.179 563.412C320.257 563.452 320.319 563.517 320.355 563.597C320.391 563.677 320.398 563.767 320.375 563.852L307.4 612.166C307.383 612.229 307.35 612.287 307.304 612.334C307.259 612.381 307.202 612.415 307.139 612.434C307.076 612.452 307.01 612.455 306.946 612.44C306.882 612.426 306.823 612.395 306.775 612.351L284.551 593.38C284.498 593.333 284.459 593.272 284.439 593.205C284.419 593.138 284.417 593.066 284.435 592.998Z" fill="white"/>
<path d="M371.539 612.177L358.575 563.886C358.552 563.802 358.559 563.711 358.595 563.631C358.631 563.551 358.693 563.486 358.771 563.446L383.936 550.934C383.987 550.908 384.044 550.894 384.102 550.893C384.16 550.892 384.217 550.904 384.269 550.929C384.322 550.954 384.368 550.99 384.404 551.035C384.441 551.08 384.466 551.132 384.48 551.188L394.504 592.974C394.521 593.042 394.52 593.114 394.5 593.182C394.479 593.249 394.44 593.309 394.388 593.356L372.164 612.374C372.114 612.418 372.055 612.448 371.99 612.462C371.925 612.476 371.858 612.472 371.796 612.453C371.733 612.433 371.676 612.397 371.631 612.349C371.586 612.3 371.554 612.241 371.539 612.177Z" fill="white"/>
<path d="M339.684 572.892L354.801 565.322C354.854 565.296 354.912 565.282 354.97 565.282C355.029 565.282 355.086 565.295 355.139 565.321C355.192 565.346 355.238 565.384 355.273 565.43C355.309 565.476 355.334 565.53 355.345 565.588L366.342 617.097C366.356 617.164 366.352 617.234 366.329 617.299C366.307 617.365 366.267 617.422 366.214 617.467L339.708 640.108C339.639 640.164 339.553 640.195 339.465 640.195C339.376 640.195 339.29 640.164 339.221 640.108L312.738 617.444C312.685 617.399 312.646 617.341 312.623 617.276C312.601 617.211 312.596 617.141 312.611 617.073L323.572 565.634C323.585 565.578 323.611 565.525 323.647 565.48C323.684 565.435 323.73 565.399 323.782 565.375C323.835 565.35 323.892 565.338 323.95 565.339C324.008 565.339 324.064 565.353 324.116 565.379L339.337 572.892C339.391 572.919 339.451 572.933 339.511 572.933C339.571 572.933 339.631 572.919 339.684 572.892Z" fill="white"/>
</g>
</svg>
