<svg width="32" height="20" viewBox="0 0 32 20" fill="none" xmlns="http://www.w3.org/2000/svg">
<rect x="0.5" y="0.5" width="31" height="19" rx="1.5" fill="white"/>
<rect x="0.5" y="0.5" width="31" height="19" rx="1.5" stroke="#D1D1D1"/>
<path d="M11.0742 13.9767L12.6083 5.40527H15.0053L13.5192 13.9767H11.0742Z" fill="#3C58BF"/>
<path d="M11.0742 13.9767L13.0398 5.40527H15.0053L13.5192 13.9767H11.0742Z" fill="#293688"/>
<path d="M22.1963 5.50009C21.7169 5.30962 20.9498 5.11914 19.991 5.11914C17.594 5.11914 15.8682 6.30962 15.8682 8.0239C15.8682 9.30962 17.0667 9.97628 18.0255 10.4049C18.9843 10.8334 19.2719 11.1191 19.2719 11.5001C19.2719 12.0715 18.5049 12.3572 17.8337 12.3572C16.8749 12.3572 16.3476 12.2144 15.5326 11.881L15.197 11.7382L14.8615 13.6906C15.4367 13.9287 16.4914 14.1668 17.594 14.1668C20.1349 14.1668 21.8128 12.9763 21.8128 11.1668C21.8128 10.1668 21.1895 9.40485 19.7513 8.78581C18.8884 8.35724 18.3611 8.11914 18.3611 7.69057C18.3611 7.30962 18.7925 6.92866 19.7513 6.92866C20.5663 6.92866 21.1416 7.07152 21.5731 7.262L21.8128 7.35724L22.1963 5.50009Z" fill="#3C58BF"/>
<path d="M22.1963 5.50009C21.7169 5.30962 20.9498 5.11914 19.991 5.11914C17.594 5.11914 16.2997 6.30962 16.2997 8.0239C16.2997 9.30962 17.0667 9.97628 18.0255 10.4049C18.9843 10.8334 19.2719 11.1191 19.2719 11.5001C19.2719 12.0715 18.5049 12.3572 17.8337 12.3572C16.8749 12.3572 16.3476 12.2144 15.5326 11.881L15.197 11.7382L14.8615 13.6906C15.4367 13.9287 16.4914 14.1668 17.594 14.1668C20.1349 14.1668 21.8128 12.9763 21.8128 11.1668C21.8128 10.1668 21.1895 9.40485 19.7513 8.78581C18.8884 8.35724 18.3611 8.11914 18.3611 7.69057C18.3611 7.30962 18.7925 6.92866 19.7513 6.92866C20.5663 6.92866 21.1416 7.07152 21.5731 7.262L21.8128 7.35724L22.1963 5.50009Z" fill="#293688"/>
<path d="M26.3185 5.40527C25.7432 5.40527 25.3118 5.45289 25.0721 6.02432L21.4766 13.9767H24.0653L24.5447 12.5481H27.6129L27.9005 13.9767H30.2017L28.1882 5.40527H26.3185ZM25.2159 11.1196C25.3597 10.691 26.1747 8.59575 26.1747 8.59575C26.1747 8.59575 26.3665 8.07194 26.5103 7.73861L26.6541 8.54813C26.6541 8.54813 27.1335 10.691 27.2294 11.1672H25.2159V11.1196Z" fill="#3C58BF"/>
<path d="M26.8938 5.40527C26.3185 5.40527 25.8871 5.45289 25.6473 6.02432L21.4766 13.9767H24.0653L24.5447 12.5481H27.6129L27.9005 13.9767H30.2017L28.1882 5.40527H26.8938ZM25.2159 11.1196C25.4076 10.6434 26.1747 8.59575 26.1747 8.59575C26.1747 8.59575 26.3665 8.07194 26.5103 7.73861L26.6541 8.54813C26.6541 8.54813 27.1335 10.691 27.2294 11.1672H25.2159V11.1196Z" fill="#293688"/>
<path d="M6.66374 11.4045L6.42404 10.1664C5.99258 8.73786 4.60232 7.16643 3.06824 6.40453L5.22554 14.0236H7.8143L11.6975 5.45215H9.10869L6.66374 11.4045Z" fill="#3C58BF"/>
<path d="M6.66374 11.4045L6.42404 10.1664C5.99258 8.73786 4.60232 7.16643 3.06824 6.40453L5.22554 14.0236H7.8143L11.6975 5.45215H9.58809L6.66374 11.4045Z" fill="#293688"/>
<path d="M0 5.40527L0.431461 5.50051C3.49963 6.2148 5.60899 8.02432 6.42397 10.1672L5.56105 6.11956C5.41723 5.54813 4.98577 5.40527 4.45843 5.40527H0Z" fill="#FFBC00"/>
<path d="M0 5.40527C3.06817 6.11956 5.60899 7.9767 6.42397 10.1196L5.60899 6.73861C5.46517 6.16718 4.98577 5.83385 4.45843 5.83385L0 5.40527Z" fill="#F7981D"/>
<path d="M0 5.40527C3.06817 6.11956 5.60899 7.9767 6.42397 10.1196L5.84869 8.26242C5.70487 7.69099 5.51311 7.11956 4.84195 6.88146L0 5.40527Z" fill="#ED7C00"/>
<path d="M9.06072 11.1193L7.43076 9.50028L6.66372 11.3098L6.47196 10.1193C6.04049 8.69076 4.65023 7.11933 3.11615 6.35742L5.27345 13.9765H7.86222L9.06072 11.1193Z" fill="#051244"/>
<path d="M13.5192 13.9771L11.4578 11.8818L11.0743 13.9771H13.5192Z" fill="#051244"/>
<path d="M19.0321 11.0244C19.2238 11.2149 19.3197 11.3577 19.2718 11.5482C19.2718 12.1197 18.5047 12.4054 17.8336 12.4054C16.8748 12.4054 16.3474 12.2625 15.5324 11.9292L15.1968 11.7863L14.8613 13.7387C15.4365 13.9768 16.4912 14.2149 17.5939 14.2149C19.1279 14.2149 20.3744 13.7863 21.0935 13.0244L19.0321 11.0244Z" fill="#051244"/>
<path d="M21.8124 13.9764H24.0656L24.545 12.5478H27.6132L27.9008 13.9764H30.202L29.387 10.5002L26.5106 7.73828L26.6544 8.50019C26.6544 8.50019 27.1338 10.643 27.2297 11.1192H25.2162C25.4079 10.643 26.175 8.59542 26.175 8.59542C26.175 8.59542 26.3667 8.07161 26.5106 7.73828" fill="#051244"/>
</svg>
