<svg xmlns:xlink="http://www.w3.org/1999/xlink" xmlns="http://www.w3.org/2000/svg" xml:space="preserve" style="enable-background:new 0 0 613.9 759.5;" viewBox="0 0 613.9 759.5" y="0px" x="0px" id="Layer_1" version="1.1"><style type="text/css">
	.st0{fill-rule:evenodd;clip-rule:evenodd;fill:#fff;}
	.st1{fill:#fff;}
</style><g><g><polygon points="358.3,305.4 398.9,297.8 385.9,320.8 347.8,327.4 340.2,359.7 334.8,333.1" class="st0"/><path d="M307.1,434.5l22.7,15.1l25.1,4.6l-7.5,15.4l-28-6.7c0,0-9.7-21.8-12.4-27.7L307.1,434.5L307.1,434.5z" class="st0"/><polygon points="367.9,404.3 418.3,348.3 416.4,305.4 432.1,356.9 375.4,423" class="st0"/><polygon points="374.3,444.3 377.9,472.1 353.1,494.8 406.1,469.1 383.6,431.7" class="st0"/><polygon points="373.8,240.8 457.7,193 481.4,238.5 448.1,267.7 464.2,235.7 453.1,212.1" class="st0"/><polygon points="366.5,246.9 517.7,382.8 467.4,451.3 501.2,387.7" class="st0"/><polygon points="431.5,326.4 491.5,389.8 450.6,473.5 478.2,400.5 442.1,359.7" class="st0"/><polygon points="437.1,365.8 470.4,402.5 434.3,493.2 451.2,422.8 420.5,388" class="st0"/><polygon points="417,393.6 443,426.1 422.6,501.9 430.1,444.9 401.8,410.3" class="st0"/><polygon points="347.9,250.1 452.3,185.6 434.3,160.9" class="st0"/><polygon points="340.1,247.4 390.7,149.5 427.4,157.7" class="st0"/><polygon points="327.2,234.7 361,136.6 327.6,121.3" class="st0"/><polygon points="376.6,245.5 521.1,377.8 536.2,355.5" class="st0"/><polygon points="388.5,243.3 509,310.5 528.1,341.5" class="st0"/><polygon points="446.8,269.2 489.3,278.3 501.4,298.2" class="st0"/><polygon points="455.3,266.3 473.9,253.4 484.5,271.5" class="st0"/><polygon points="397.4,416.4 424.5,449.7 407.4,521.1 412.2,460.7 388.7,426.6" class="st0"/><polygon points="405.3,478.4 403,509.1 386.2,523.5 381.2,490.4" class="st0"/><polygon points="375.9,493 382,527.1 365,541.7 356.2,502.6" class="st0"/><polygon points="350.1,505.7 359.7,546.1 338.1,564.6 325.5,517.9" class="st0"/><polygon points="333.4,242.6 366.3,139.6 384.2,147.2" class="st0"/><polygon points="307.1,435.5 292.7,416.2 274.2,408.5 271.6,391.5 299,394.8 307.1,406.2 315.3,394.8 342.6,391.5     339.9,408.5 321.5,416.2" class="st0"/><polygon points="255.9,305.4 215.2,297.8 228.3,320.8 266.3,327.4 274,359.7 279.5,333.1" class="st0"/><path d="M307.1,434.5l-22.7,15.1l-25.1,4.6l7.5,15.4l28-6.7c0,0,9.7-21.8,12.4-27.7L307.1,434.5L307.1,434.5z" class="st0"/><polygon points="246.3,404.3 195.9,348.3 197.8,305.4 182.2,356.9 235.9,424" class="st0"/><polygon points="240,444.3 236.2,472.1 261.1,494.8 208,469.1 230.5,431.7" class="st0"/><polygon points="267.4,472.5 278.5,487.8 307.1,486.4 335.7,487.8 346.7,472.5 344,500.4 307.1,517.5 307.1,515.1     307.1,517.5 270.2,500.4" class="st0"/><polygon points="240.4,240.8 156.5,193 132.8,238.5 166.1,267.7 149.9,235.7 161.1,212.1" class="st0"/><polygon points="247.7,246.9 96.4,382.8 146.8,451.3 112.9,387.7" class="st0"/><polygon points="182.7,326.4 122.7,389.8 163.5,473.5 135.9,400.5 172,359.7" class="st0"/><polygon points="177.1,365.8 143.8,402.5 179.8,493.2 162.9,422.8 193.6,388" class="st0"/><polygon points="197.2,393.6 171.1,426.1 191.6,501.9 184.1,444.9 212.4,410.3" class="st0"/><polygon points="266.3,250.1 161.9,185.6 179.8,160.9" class="st0"/><polygon points="274,247.4 223.4,149.5 186.7,157.7" class="st0"/><polygon points="287,234.7 253.1,136.6 286.7,121.3" class="st0"/><polygon points="307.1,254.3 294.7,236.9 291.8,110.4 307.1,143.4 322.4,110.4 319.4,236.9" class="st0"/><polygon points="237.5,245.5 93.1,377.8 78,355.5" class="st0"/><polygon points="225.7,243.3 105.1,310.5 86.1,341.5" class="st0"/><polygon points="167.4,269.2 124.9,278.3 112.7,298.2" class="st0"/><polygon points="158.9,266.3 140.3,253.4 129.7,271.5" class="st0"/><polygon points="216.7,416.4 189.7,449.7 206.7,521.1 201.9,460.7 225.5,426.6" class="st0"/><polygon points="208.8,478.4 211.3,509.1 228,523.5 233,490.4" class="st0"/><polygon points="238.2,493 232.2,527.1 249.2,541.7 257.9,502.6" class="st0"/><polygon points="264.1,505.7 254.5,546.1 276.1,564.6 288.7,517.9" class="st0"/><polygon points="292.1,519.5 281.4,569.3 307.1,591.2 332.7,569.3 322.1,519.5 307.1,527" class="st0"/><polygon points="280.7,242.6 247.9,139.6 229.9,147.2" class="st0"/><path d="M497.7,406.3" class="st0"/></g><path d="M608.8,147.7l-1.8-20.2l-8.1-7.9C521.8,43.9,420.8,1.5,314,0h-8.3C196.7,0.1,93.5,42.6,15.1,119.6L7,127.5   l-1.8,20.2C-0.1,207.3-1.3,259.4,1.4,307c2.6,45.3,8.9,85.3,19.1,122.1c9.4,34.2,22.1,65,38.7,94.4c14.4,25.5,32.1,50.3,54,75.6   l0.3,0.3c54.5,60.2,120.1,107.1,148.1,127.1c3,2.2,30.6,22.3,33.7,24.5l11.5,8.5l14.3-10.5c7.8-5.7,28.3-20.7,30.9-22.5   c28-20,93.6-66.9,148.2-127.1l0.2-0.3c21.9-25.3,39.6-50.1,54-75.6c16.6-29.4,29.3-60.3,38.7-94.4c10.1-36.8,16.4-76.7,19.1-122.1   C615.4,259.4,614.2,207.3,608.8,147.7z M573.9,304.8c-1,17.5-2.6,34.5-4.9,50.2l-3.6,22.8c-2.5,14.1-5.7,27.9-9.3,41   c-16,57.9-42.1,105.7-84.6,154.8c-51.7,57.1-114.9,102.3-141.8,121.6c-2.2,1.6-13.6,9.8-22.6,16.4c-9-6.6-20.4-14.9-22.6-16.5   c-27-19.3-90.1-64.4-141.8-121.5c-42.6-49.2-68.6-97-84.7-154.9c-3.6-13.1-6.7-26.8-9.2-40.8L45.3,356c-2.2-16.1-4-33.5-5-51.3   c-2.6-45.6-1.5-95.9,3.6-153.6l0.5-6C115.3,76.4,208,38.6,305.8,38.5h3.3c97.4,0.3,189.9,38.1,260.5,106.6l0.5,6   C575.3,208.8,576.6,259.1,573.9,304.8z" class="st1"/></g></svg>